<svg xmlns="http://www.w3.org/2000/svg" viewBox="0 0 1719.52 262.89"><defs><style>.cls-1{fill:#7d07f2;}.cls-2{fill:#fff;}.cls-3{opacity:0.5;}.cls-4{fill:none;}</style></defs><title>Fichier 3folder</title><g id="Calque_2" data-name="Calque 2"><g id="BACKGROUND"><rect class="cls-1" width="1719.52" height="262.89"/><path class="cls-2" d="M133.55,30.56a1.68,1.68,0,1,1-1.68-1.68A1.68,1.68,0,0,1,133.55,30.56Z"/><path class="cls-2" d="M149.27,30.56a1.68,1.68,0,1,1-1.67-1.68A1.67,1.67,0,0,1,149.27,30.56Z"/><path class="cls-2" d="M165,30.56a1.68,1.68,0,1,1-1.67-1.68A1.67,1.67,0,0,1,165,30.56Z"/><path class="cls-2" d="M180.71,30.56A1.67,1.67,0,1,1,179,28.88,1.67,1.67,0,0,1,180.71,30.56Z"/><path class="cls-2" d="M196.43,30.56a1.67,1.67,0,1,1-1.67-1.68A1.67,1.67,0,0,1,196.43,30.56Z"/><path class="cls-2" d="M212.15,30.56a1.67,1.67,0,1,1-1.67-1.68A1.67,1.67,0,0,1,212.15,30.56Z"/><path class="cls-2" d="M227.87,30.56a1.67,1.67,0,1,1-1.67-1.68A1.67,1.67,0,0,1,227.87,30.56Z"/><path class="cls-2" d="M243.59,30.56a1.67,1.67,0,1,1-1.67-1.68A1.67,1.67,0,0,1,243.59,30.56Z"/><path class="cls-2" d="M259.31,30.56a1.67,1.67,0,1,1-1.67-1.68A1.67,1.67,0,0,1,259.31,30.56Z"/><path class="cls-2" d="M275,30.56a1.67,1.67,0,1,1-1.67-1.68A1.67,1.67,0,0,1,275,30.56Z"/><path class="cls-2" d="M290.76,30.56a1.68,1.68,0,1,1-1.68-1.68A1.68,1.68,0,0,1,290.76,30.56Z"/><path class="cls-2" d="M133.55,44.67A1.68,1.68,0,1,1,131.87,43,1.68,1.68,0,0,1,133.55,44.67Z"/><path class="cls-2" d="M149.27,44.67A1.68,1.68,0,1,1,147.6,43,1.68,1.68,0,0,1,149.27,44.67Z"/><path class="cls-2" d="M165,44.67A1.68,1.68,0,1,1,163.32,43,1.68,1.68,0,0,1,165,44.67Z"/><path class="cls-2" d="M180.71,44.67A1.67,1.67,0,1,1,179,43,1.68,1.68,0,0,1,180.71,44.67Z"/><path class="cls-2" d="M196.43,44.67A1.67,1.67,0,1,1,194.76,43,1.68,1.68,0,0,1,196.43,44.67Z"/><path class="cls-2" d="M212.15,44.67A1.67,1.67,0,1,1,210.48,43,1.68,1.68,0,0,1,212.15,44.67Z"/><path class="cls-2" d="M227.87,44.67A1.67,1.67,0,1,1,226.2,43,1.68,1.68,0,0,1,227.87,44.67Z"/><path class="cls-2" d="M243.59,44.67A1.67,1.67,0,1,1,241.92,43,1.68,1.68,0,0,1,243.59,44.67Z"/><path class="cls-2" d="M259.31,44.67A1.67,1.67,0,1,1,257.64,43,1.67,1.67,0,0,1,259.31,44.67Z"/><path class="cls-2" d="M275,44.67A1.67,1.67,0,1,1,273.36,43,1.67,1.67,0,0,1,275,44.67Z"/><path class="cls-2" d="M290.76,44.67A1.68,1.68,0,1,1,289.08,43,1.68,1.68,0,0,1,290.76,44.67Z"/><path class="cls-2" d="M133.55,58.79a1.68,1.68,0,1,1-1.68-1.67A1.67,1.67,0,0,1,133.55,58.79Z"/><path class="cls-2" d="M149.27,58.79a1.68,1.68,0,1,1-1.67-1.67A1.67,1.67,0,0,1,149.27,58.79Z"/><path class="cls-2" d="M165,58.79a1.68,1.68,0,1,1-1.67-1.67A1.67,1.67,0,0,1,165,58.79Z"/><path class="cls-2" d="M180.71,58.79A1.67,1.67,0,1,1,179,57.12,1.67,1.67,0,0,1,180.71,58.79Z"/><path class="cls-2" d="M196.43,58.79a1.67,1.67,0,1,1-1.67-1.67A1.67,1.67,0,0,1,196.43,58.79Z"/><path class="cls-2" d="M212.15,58.79a1.67,1.67,0,1,1-1.67-1.67A1.67,1.67,0,0,1,212.15,58.79Z"/><path class="cls-2" d="M227.87,58.79a1.67,1.67,0,1,1-1.67-1.67A1.67,1.67,0,0,1,227.87,58.79Z"/><path class="cls-2" d="M243.59,58.79a1.67,1.67,0,1,1-1.67-1.67A1.67,1.67,0,0,1,243.59,58.79Z"/><path class="cls-2" d="M259.31,58.79a1.67,1.67,0,1,1-1.67-1.67A1.66,1.66,0,0,1,259.31,58.79Z"/><path class="cls-2" d="M275,58.79a1.67,1.67,0,1,1-1.67-1.67A1.66,1.66,0,0,1,275,58.79Z"/><path class="cls-2" d="M290.76,58.79a1.68,1.68,0,1,1-1.68-1.67A1.67,1.67,0,0,1,290.76,58.79Z"/><circle class="cls-2" cx="131.87" cy="72.91" r="1.67"/><circle class="cls-2" cx="147.6" cy="72.91" r="1.67"/><path class="cls-2" d="M165,72.91a1.68,1.68,0,1,1-1.67-1.67A1.67,1.67,0,0,1,165,72.91Z"/><circle class="cls-2" cx="179.04" cy="72.91" r="1.67"/><circle class="cls-2" cx="194.76" cy="72.91" r="1.67"/><circle class="cls-2" cx="210.48" cy="72.91" r="1.67"/><circle class="cls-2" cx="226.2" cy="72.91" r="1.67"/><circle class="cls-2" cx="241.92" cy="72.91" r="1.67"/><circle class="cls-2" cx="257.64" cy="72.91" r="1.67"/><path class="cls-2" d="M275,72.91a1.67,1.67,0,1,1-1.67-1.67A1.67,1.67,0,0,1,275,72.91Z"/><path class="cls-2" d="M290.76,72.91a1.68,1.68,0,1,1-1.68-1.67A1.68,1.68,0,0,1,290.76,72.91Z"/><circle class="cls-2" cx="131.87" cy="87.03" r="1.67"/><circle class="cls-2" cx="147.6" cy="87.03" r="1.67"/><path class="cls-2" d="M165,87a1.68,1.68,0,1,1-1.67-1.67A1.67,1.67,0,0,1,165,87Z"/><circle class="cls-2" cx="179.04" cy="87.03" r="1.67"/><circle class="cls-2" cx="194.76" cy="87.03" r="1.67"/><circle class="cls-2" cx="210.48" cy="87.03" r="1.67"/><circle class="cls-2" cx="226.2" cy="87.03" r="1.67"/><circle class="cls-2" cx="241.92" cy="87.03" r="1.67"/><circle class="cls-2" cx="257.64" cy="87.03" r="1.67"/><path class="cls-2" d="M275,87a1.67,1.67,0,1,1-1.67-1.67A1.67,1.67,0,0,1,275,87Z"/><path class="cls-2" d="M290.76,87a1.68,1.68,0,1,1-1.68-1.67A1.68,1.68,0,0,1,290.76,87Z"/><circle class="cls-2" cx="131.87" cy="101.15" r="1.67"/><circle class="cls-2" cx="147.6" cy="101.15" r="1.67"/><path class="cls-2" d="M165,101.15a1.68,1.68,0,1,1-1.67-1.68A1.67,1.67,0,0,1,165,101.15Z"/><circle class="cls-2" cx="179.04" cy="101.15" r="1.67"/><circle class="cls-2" cx="194.76" cy="101.15" r="1.67"/><circle class="cls-2" cx="210.48" cy="101.15" r="1.67"/><circle class="cls-2" cx="226.2" cy="101.15" r="1.67"/><circle class="cls-2" cx="241.92" cy="101.15" r="1.67"/><circle class="cls-2" cx="257.64" cy="101.15" r="1.67"/><path class="cls-2" d="M275,101.15a1.67,1.67,0,1,1-1.67-1.68A1.67,1.67,0,0,1,275,101.15Z"/><path class="cls-2" d="M290.76,101.15a1.68,1.68,0,1,1-1.68-1.68A1.68,1.68,0,0,1,290.76,101.15Z"/><g class="cls-3"><path class="cls-4" d="M813.91,63.86l-70,70a50.09,50.09,0,0,0,3.84,4.52L818.43,67.7A50.09,50.09,0,0,0,813.91,63.86Z"/><path class="cls-4" d="M798.59,56.05l-62.5,62.5a46.83,46.83,0,0,0,2.3,6l66.25-66.25A46.83,46.83,0,0,0,798.59,56.05Z"/><path class="cls-4" d="M806.81,59.4l-67.37,67.37a50.67,50.67,0,0,0,3.12,5.22L812,62.52A50.67,50.67,0,0,0,806.81,59.4Z"/><path class="cls-4" d="M783.89,53.85a50.76,50.76,0,0,0-6.68.44L734.33,97.17a50.76,50.76,0,0,0-.44,6.68c0,.69,0,1.38,0,2.07l52-52C785.27,53.86,784.58,53.85,783.89,53.85Z"/><path class="cls-4" d="M820,69.31,749.35,140a50.1,50.1,0,0,0,4.51,3.83l70-70A50.1,50.1,0,0,0,820,69.31Z"/><path class="cls-4" d="M760.05,59.88,739.92,80A49.66,49.66,0,0,0,735,93.27L773.31,55A49.66,49.66,0,0,0,760.05,59.88Z"/><path class="cls-4" d="M789,54.1l-54.83,54.83a50.41,50.41,0,0,0,1.25,7.1l60.68-60.68A50.41,50.41,0,0,0,789,54.1Z"/><path class="cls-4" d="M807.72,147.81l20.13-20.13a49.53,49.53,0,0,0,4.91-13.26l-38.3,38.3A49.53,49.53,0,0,0,807.72,147.81Z"/><path class="cls-4" d="M825.21,75.7l-69.47,69.47a47.48,47.48,0,0,0,5.23,3.12l67.36-67.36A47.48,47.48,0,0,0,825.21,75.7Z"/><path class="cls-4" d="M833.89,103.85c0-.7,0-1.39,0-2.07l-52,52c.68,0,1.37,0,2.07,0a50.6,50.6,0,0,0,6.67-.45l42.88-42.88A50.6,50.6,0,0,0,833.89,103.85Z"/><path class="cls-4" d="M829.39,83.09l-66.26,66.26a50,50,0,0,0,6,2.3l62.51-62.51A50.59,50.59,0,0,0,829.39,83.09Z"/><path class="cls-4" d="M832.39,91.66,771.7,152.35a49,49,0,0,0,7.1,1.24l54.83-54.83A49,49,0,0,0,832.39,91.66Z"/><path class="cls-2" d="M739.92,80l20.13-20.13A50.26,50.26,0,0,0,739.92,80Z"/><path class="cls-2" d="M773.31,55,735,93.27c-.28,1.28-.5,2.58-.68,3.9l42.88-42.88C775.89,54.47,774.59,54.7,773.31,55Z"/><path class="cls-2" d="M786,53.89l-52,52c0,1,.11,2,.21,3L789,54.1C788,54,787,53.93,786,53.89Z"/><path class="cls-2" d="M796.07,55.35,735.39,116c.21.85.44,1.69.7,2.52l62.5-62.5C797.76,55.79,796.92,55.56,796.07,55.35Z"/><path class="cls-2" d="M804.64,58.35,738.39,124.6c.33.73.68,1.45,1.05,2.17L806.81,59.4C806.09,59,805.37,58.68,804.64,58.35Z"/><path class="cls-2" d="M812,62.52,742.56,132c.43.64.88,1.27,1.34,1.88l70-70C813.3,63.4,812.67,63,812,62.52Z"/><path class="cls-2" d="M818.43,67.7l-70.69,70.69c.52.55,1.06,1.08,1.61,1.61L820,69.31C819.51,68.76,819,68.22,818.43,67.7Z"/><path class="cls-2" d="M823.87,73.82l-70,70c.62.46,1.24.91,1.88,1.34L825.21,75.7C824.78,75.06,824.33,74.44,823.87,73.82Z"/><path class="cls-2" d="M828.33,80.93,761,148.29c.71.37,1.43.72,2.16,1.06l66.26-66.26C829.05,82.36,828.7,81.64,828.33,80.93Z"/><path class="cls-2" d="M831.69,89.14l-62.51,62.51c.83.25,1.67.49,2.52.7l60.69-60.69C832.18,90.81,831.94,90,831.69,89.14Z"/><path class="cls-2" d="M833.63,98.76,778.8,153.59c1,.1,2,.17,3,.21l52-52C833.8,100.76,833.73,99.76,833.63,98.76Z"/><path class="cls-2" d="M832.76,114.42c.28-1.28.51-2.58.68-3.9L790.56,153.4c1.32-.17,2.62-.4,3.9-.68Z"/><path class="cls-2" d="M827.85,127.68l-20.13,20.13A50.26,50.26,0,0,0,827.85,127.68Z"/></g><g class="cls-3"><path class="cls-4" d="M330.86,169.72l-56,56a40.88,40.88,0,0,0,3.07,3.61l56.55-56.55A40.88,40.88,0,0,0,330.86,169.72Z"/><path class="cls-4" d="M318.61,163.47l-50,50a40.06,40.06,0,0,0,1.84,4.83l53-53A40.06,40.06,0,0,0,318.61,163.47Z"/><path class="cls-4" d="M325.18,166.15l-53.9,53.9a40.84,40.84,0,0,0,2.5,4.18l55.58-55.58A40.84,40.84,0,0,0,325.18,166.15Z"/><path class="cls-4" d="M306.84,161.71a39.26,39.26,0,0,0-5.34.36l-34.3,34.3a39.26,39.26,0,0,0-.36,5.34c0,.56,0,1.11,0,1.66l41.62-41.62C308,161.73,307.4,161.71,306.84,161.71Z"/><path class="cls-4" d="M335.76,174.08l-56.55,56.55a40.63,40.63,0,0,0,3.61,3.07l56-56A40.63,40.63,0,0,0,335.76,174.08Z"/><path class="cls-4" d="M287.77,166.54l-16.1,16.1a40,40,0,0,0-3.93,10.61l30.64-30.64A40,40,0,0,0,287.77,166.54Z"/><path class="cls-4" d="M310.91,161.92l-43.86,43.86a39.42,39.42,0,0,0,1,5.68l48.55-48.55A39.42,39.42,0,0,0,310.91,161.92Z"/><path class="cls-4" d="M325.91,236.88l16.1-16.1a39.63,39.63,0,0,0,3.93-10.61L315.3,240.81A39.63,39.63,0,0,0,325.91,236.88Z"/><path class="cls-4" d="M339.9,179.19l-55.58,55.58a40.13,40.13,0,0,0,4.18,2.5l53.9-53.9A40.13,40.13,0,0,0,339.9,179.19Z"/><path class="cls-4" d="M346.84,201.71c0-.55,0-1.11,0-1.65l-41.62,41.61c.55,0,1.11,0,1.66,0a40.94,40.94,0,0,0,5.34-.35l34.31-34.31A40.94,40.94,0,0,0,346.84,201.71Z"/><path class="cls-4" d="M343.24,185.11l-53,53a38,38,0,0,0,4.84,1.84l50-50A39.58,39.58,0,0,0,343.24,185.11Z"/><path class="cls-4" d="M345.64,192l-48.55,48.55a39.57,39.57,0,0,0,5.69,1l43.86-43.86A41,41,0,0,0,345.64,192Z"/><path class="cls-2" d="M271.67,182.64l16.1-16.1A40.11,40.11,0,0,0,271.67,182.64Z"/><path class="cls-2" d="M298.38,162.61l-30.64,30.64q-.33,1.55-.54,3.12l34.3-34.3Q299.92,162.28,298.38,162.61Z"/><path class="cls-2" d="M308.5,161.75l-41.62,41.62c0,.81.08,1.61.17,2.41l43.86-43.86C310.11,161.84,309.31,161.78,308.5,161.75Z"/><path class="cls-2" d="M316.59,162.91,268,211.46c.17.68.36,1.35.56,2l50-50C317.94,163.27,317.27,163.08,316.59,162.91Z"/><path class="cls-2" d="M323.44,165.31l-53,53q.4.88.84,1.74l53.9-53.9Q324.33,165.72,323.44,165.31Z"/><path class="cls-2" d="M329.36,168.65l-55.58,55.58c.35.51.7,1,1.07,1.5l56-56C330.37,169.36,329.87,169,329.36,168.65Z"/><path class="cls-2" d="M334.47,172.79l-56.55,56.55q.63.66,1.29,1.29l56.55-56.55Q335.13,173.42,334.47,172.79Z"/><path class="cls-2" d="M338.83,177.69l-56,56c.49.37,1,.73,1.5,1.07l55.58-55.58C339.56,178.68,339.2,178.18,338.83,177.69Z"/><path class="cls-2" d="M342.4,183.37l-53.9,53.9q.86.43,1.74.84l53-53Q342.84,184.23,342.4,183.37Z"/><path class="cls-2" d="M345.08,190l-50,50c.66.21,1.33.39,2,.56L345.64,192C345.47,191.28,345.29,190.61,345.08,190Z"/><path class="cls-2" d="M346.64,197.65l-43.86,43.86c.79.08,1.6.13,2.4.16l41.62-41.61C346.77,199.25,346.72,198.44,346.64,197.65Z"/><path class="cls-2" d="M345.94,210.17c.22-1,.4-2.06.55-3.12l-34.31,34.31c1.06-.15,2.1-.33,3.12-.55Z"/><path class="cls-2" d="M342,220.78l-16.1,16.1A40.11,40.11,0,0,0,342,220.78Z"/></g><g class="cls-3"><path class="cls-2" d="M644.67,214.23a6,6,0,1,1,6-6A6,6,0,0,1,644.67,214.23Zm0-10a4,4,0,1,0,4,4A4,4,0,0,0,644.67,204.23Z"/></g><g class="cls-3"><path class="cls-2" d="M732,34.88a6,6,0,1,1,6-6A6,6,0,0,1,732,34.88Zm0-10a4,4,0,1,0,4,4A4,4,0,0,0,732,24.88Z"/></g><g class="cls-3"><path class="cls-2" d="M233.87,211.78a6,6,0,1,1,6-6A6,6,0,0,1,233.87,211.78Zm0-10a4,4,0,1,0,4,4A4,4,0,0,0,233.87,201.78Z"/></g><g class="cls-3"><path class="cls-2" d="M465.22,70.24a6,6,0,1,1,6-6A6,6,0,0,1,465.22,70.24Zm0-10a4,4,0,1,0,4,4A4,4,0,0,0,465.22,60.24Z"/></g><path class="cls-2" d="M168.51,161.75H154.83a.66.66,0,0,1-.57-.34.65.65,0,0,1,0-.66l6.83-11.84a.7.7,0,0,1,1.16,0l6.83,11.84a.65.65,0,0,1,0,.66A.66.66,0,0,1,168.51,161.75ZM156,160.42h11.36l-5.68-9.85Z"/><path class="cls-2" d="M596.17,54.49,608,47.6a.67.67,0,0,1,.67,0,.68.68,0,0,1,.33.57L609,61.84a.69.69,0,0,1-1,.58l-11.87-6.78a.69.69,0,0,1-.34-.58A.68.68,0,0,1,596.17,54.49Zm11.49-5.16-9.82,5.73,9.87,5.64Z"/><path class="cls-2" d="M437.06,165.39l-11.21-7.82a.68.68,0,0,1-.28-.6.68.68,0,0,1,.38-.55l12.38-5.79a.69.69,0,0,1,.95.66l-1.18,13.62a.66.66,0,0,1-1,.48Zm-9.5-8.25,9.32,6.51,1-11.33Z"/><path class="cls-2" d="M814.36,187.86l-9.31,10a.65.65,0,0,1-.63.19.66.66,0,0,1-.49-.45l-4-13.07a.69.69,0,0,1,.78-.84l13.33,3a.66.66,0,0,1,.49.45A.67.67,0,0,1,814.36,187.86Zm-9.5,8.27,7.74-8.33-11.08-2.54Z"/><path class="cls-2" d="M327.15,28.9l11.35-7.61a.67.67,0,0,1,1,.51l.91,13.64a.69.69,0,0,1-.95.64l-12.27-6a.63.63,0,0,1-.37-.55A.66.66,0,0,1,327.15,28.9ZM338.29,23l-9.44,6.33,10.2,5Z"/><g class="cls-3"><path class="cls-2" d="M697,143.91H687a1,1,0,0,1-1-1v-10a1,1,0,0,1,1-1h10a1,1,0,0,1,1,1v10A1,1,0,0,1,697,143.91Zm-9-2h8v-8h-8Z"/></g><circle class="cls-2" cx="1587.1" cy="229.63" r="2.22"/><circle class="cls-2" cx="1587.1" cy="208.76" r="2.22"/><circle class="cls-2" cx="1587.1" cy="187.9" r="2.22"/><circle class="cls-2" cx="1587.1" cy="167.04" r="2.22"/><path class="cls-2" d="M1587.1,144a2.22,2.22,0,1,1-2.22,2.22A2.23,2.23,0,0,1,1587.1,144Z"/><circle class="cls-2" cx="1587.1" cy="125.31" r="2.22"/><circle class="cls-2" cx="1587.1" cy="104.45" r="2.22"/><circle class="cls-2" cx="1587.1" cy="83.58" r="2.22"/><circle class="cls-2" cx="1587.1" cy="62.72" r="2.22"/><circle class="cls-2" cx="1587.1" cy="41.86" r="2.22"/><circle class="cls-2" cx="1587.1" cy="20.99" r="2.22"/><circle class="cls-2" cx="1113.08" cy="229.63" r="2.22"/><circle class="cls-2" cx="1092.21" cy="229.63" r="2.22"/><circle class="cls-2" cx="1071.35" cy="229.63" r="2.22"/><circle class="cls-2" cx="1050.49" cy="229.63" r="2.22"/><circle class="cls-2" cx="1029.62" cy="229.63" r="2.22"/><circle class="cls-2" cx="1008.76" cy="229.63" r="2.22"/><circle class="cls-2" cx="987.9" cy="229.63" r="2.22"/><circle class="cls-2" cx="967.03" cy="229.63" r="2.22"/><circle class="cls-2" cx="946.17" cy="229.63" r="2.22"/><circle class="cls-2" cx="925.31" cy="229.63" r="2.22"/><circle class="cls-2" cx="904.44" cy="229.63" r="2.22"/><g class="cls-3"><path class="cls-4" d="M1196.28,56.16l-50.62,50.62a35.85,35.85,0,0,0,2.77,3.26l51.11-51.11A35.85,35.85,0,0,0,1196.28,56.16Z"/><path class="cls-4" d="M1185.2,50.51,1140,95.7a34.8,34.8,0,0,0,1.66,4.37l47.9-47.9A34.8,34.8,0,0,0,1185.2,50.51Z"/><path class="cls-4" d="M1191.14,52.93l-48.71,48.71a35.94,35.94,0,0,0,2.26,3.78l50.23-50.23A35.94,35.94,0,0,0,1191.14,52.93Z"/><path class="cls-4" d="M1174.57,48.92a36.62,36.62,0,0,0-4.83.32l-31,31a36.62,36.62,0,0,0-.32,4.83c0,.5,0,1,0,1.49L1176.06,49C1175.57,48.93,1175.07,48.92,1174.57,48.92Z"/><path class="cls-4" d="M1200.71,60.09l-51.12,51.12a39.22,39.22,0,0,0,3.27,2.77l50.62-50.62A39.22,39.22,0,0,0,1200.71,60.09Z"/><path class="cls-4" d="M1157.33,53.28l-14.55,14.55a36,36,0,0,0-3.55,9.59l27.69-27.69A36,36,0,0,0,1157.33,53.28Z"/><path class="cls-4" d="M1178.24,49.1,1138.6,88.74a36.32,36.32,0,0,0,.9,5.14L1183.38,50A36.32,36.32,0,0,0,1178.24,49.1Z"/><path class="cls-4" d="M1191.8,116.85l14.55-14.55a36,36,0,0,0,3.56-9.59l-27.7,27.7A36,36,0,0,0,1191.8,116.85Z"/><path class="cls-4" d="M1204.45,64.72,1154.22,115a35.86,35.86,0,0,0,3.78,2.25l48.7-48.7A35.86,35.86,0,0,0,1204.45,64.72Z"/><path class="cls-4" d="M1210.72,85.07q0-.75,0-1.5l-37.62,37.62q.75,0,1.5,0a36.58,36.58,0,0,0,4.82-.32l31-31A36.58,36.58,0,0,0,1210.72,85.07Z"/><path class="cls-4" d="M1207.47,70.06,1159.56,118a36.42,36.42,0,0,0,4.37,1.66l45.2-45.2A36.42,36.42,0,0,0,1207.47,70.06Z"/><path class="cls-4" d="M1209.64,76.26l-43.88,43.88a36.17,36.17,0,0,0,5.13.89l39.64-39.64A36.17,36.17,0,0,0,1209.64,76.26Z"/><path class="cls-2" d="M1142.78,67.83l14.55-14.55A36.38,36.38,0,0,0,1142.78,67.83Z"/><path class="cls-2" d="M1166.92,49.73l-27.69,27.69c-.2.93-.36,1.87-.49,2.82l31-31C1168.79,49.36,1167.85,49.53,1166.92,49.73Z"/><path class="cls-2" d="M1176.06,49l-37.61,37.61c0,.74.08,1.46.15,2.18l39.64-39.64C1177.52,49,1176.8,49,1176.06,49Z"/><path class="cls-2" d="M1183.38,50,1139.5,93.88c.15.61.32,1.22.51,1.82l45.19-45.19C1184.6,50.32,1184,50.15,1183.38,50Z"/><path class="cls-2" d="M1189.57,52.17l-47.9,47.9c.24.53.5,1.05.76,1.57l48.71-48.71C1190.62,52.67,1190.1,52.41,1189.57,52.17Z"/><path class="cls-2" d="M1194.92,55.19l-50.23,50.23c.31.46.63.91,1,1.36l50.62-50.62C1195.83,55.82,1195.38,55.5,1194.92,55.19Z"/><path class="cls-2" d="M1199.54,58.93,1148.43,110c.38.4.77.79,1.16,1.17l51.12-51.12C1200.33,59.7,1199.94,59.31,1199.54,58.93Z"/><path class="cls-2" d="M1203.48,63.36,1152.86,114c.44.33.9.65,1.36,1l50.23-50.23C1204.13,64.26,1203.81,63.8,1203.48,63.36Z"/><path class="cls-2" d="M1206.7,68.5,1158,117.2c.51.27,1,.52,1.56.77l47.91-47.91C1207.22,69.53,1207,69,1206.7,68.5Z"/><path class="cls-2" d="M1209.13,74.43l-45.2,45.2c.61.18,1.21.35,1.83.51l43.88-43.88C1209.48,75.64,1209.31,75,1209.13,74.43Z"/><path class="cls-2" d="M1210.53,81.39,1170.89,121c.72.08,1.45.13,2.18.16l37.62-37.62C1210.66,82.84,1210.61,82.11,1210.53,81.39Z"/><path class="cls-2" d="M1209.91,92.71c.2-.92.36-1.86.49-2.82l-31,31c1-.13,1.9-.29,2.82-.49Z"/><path class="cls-2" d="M1206.35,102.3l-14.55,14.55A36.14,36.14,0,0,0,1206.35,102.3Z"/></g><g class="cls-3"><path class="cls-4" d="M1529.56,109.14l-105,105a74.34,74.34,0,0,0,5.75,6.78l106-106A76,76,0,0,0,1529.56,109.14Z"/><path class="cls-4" d="M1506.58,97.42l-93.75,93.76a74.91,74.91,0,0,0,3.44,9.07l99.39-99.38A72.87,72.87,0,0,0,1506.58,97.42Z"/><path class="cls-4" d="M1518.91,102.45,1417.86,203.5a75.36,75.36,0,0,0,4.67,7.84l104.22-104.21A73.73,73.73,0,0,0,1518.91,102.45Z"/><path class="cls-4" d="M1484.53,94.12a77,77,0,0,0-10,.66l-64.32,64.32a77,77,0,0,0-.66,10c0,1,0,2.07.06,3.1l78-78C1486.6,94.14,1485.57,94.12,1484.53,94.12Z"/><path class="cls-4" d="M1538.75,117.31l-106,106a74.21,74.21,0,0,0,6.77,5.75l105-105A74.21,74.21,0,0,0,1538.75,117.31Z"/><path class="cls-4" d="M1448.77,103.17l-30.19,30.19a74.43,74.43,0,0,0-7.37,19.89l57.45-57.45A74.43,74.43,0,0,0,1448.77,103.17Z"/><path class="cls-4" d="M1492.15,94.5l-82.24,82.24a76.6,76.6,0,0,0,1.86,10.66l91-91A76.2,76.2,0,0,0,1492.15,94.5Z"/><path class="cls-4" d="M1520.28,235.06l30.19-30.19a74.43,74.43,0,0,0,7.37-19.89l-57.45,57.45A74.43,74.43,0,0,0,1520.28,235.06Z"/><path class="cls-4" d="M1546.52,126.89,1442.3,231.11a77.24,77.24,0,0,0,7.84,4.68l101.06-101A76.3,76.3,0,0,0,1546.52,126.89Z"/><path class="cls-4" d="M1559.53,169.12c0-1,0-2.08-.07-3.11l-78,78c1,0,2.06.07,3.11.07a75.24,75.24,0,0,0,10-.67l64.32-64.32A75.24,75.24,0,0,0,1559.53,169.12Z"/><path class="cls-4" d="M1552.78,138l-99.38,99.38a75.36,75.36,0,0,0,9.07,3.45l93.76-93.76A75.36,75.36,0,0,0,1552.78,138Z"/><path class="cls-4" d="M1557.28,150.84l-91,91a73.38,73.38,0,0,0,10.65,1.86l82.24-82.24A73.38,73.38,0,0,0,1557.28,150.84Z"/><path class="cls-2" d="M1418.58,133.36l30.19-30.19A75.37,75.37,0,0,0,1418.58,133.36Z"/><path class="cls-2" d="M1468.66,95.8l-57.45,57.45q-.62,2.9-1,5.85l64.32-64.32C1472.54,95.05,1470.58,95.39,1468.66,95.8Z"/><path class="cls-2" d="M1487.63,94.19l-78,78c.07,1.52.17,3,.32,4.52l82.24-82.24C1490.66,94.35,1489.15,94.25,1487.63,94.19Z"/><path class="cls-2" d="M1502.8,96.36l-91,91c.32,1.27.67,2.53,1.06,3.78l93.75-93.76C1505.34,97,1504.08,96.68,1502.8,96.36Z"/><path class="cls-2" d="M1515.66,100.87l-99.39,99.38c.51,1.09,1,2.18,1.59,3.25l101.05-101C1517.84,101.89,1516.75,101.37,1515.66,100.87Z"/><path class="cls-2" d="M1526.75,107.13,1422.53,211.34c.66.95,1.33,1.89,2,2.81l105-105C1528.64,108.45,1527.7,107.78,1526.75,107.13Z"/><path class="cls-2" d="M1536.34,114.89l-106,106c.79.82,1.59,1.63,2.42,2.41l106-106C1538,116.48,1537.16,115.68,1536.34,114.89Z"/><path class="cls-2" d="M1544.5,124.08l-105,105c.92.69,1.86,1.37,2.81,2l104.22-104.22C1545.87,125.94,1545.19,125,1544.5,124.08Z"/><path class="cls-2" d="M1551.2,134.74l-101.06,101c1.07.55,2.16,1.08,3.26,1.58L1552.78,138C1552.28,136.89,1551.75,135.8,1551.2,134.74Z"/><path class="cls-2" d="M1556.23,147.06l-93.76,93.76q1.86.57,3.78,1.05l91-91Q1556.8,148.92,1556.23,147.06Z"/><path class="cls-2" d="M1559.14,161.49l-82.24,82.24c1.5.15,3,.26,4.52.32l78-78C1559.39,164.49,1559.29,163,1559.14,161.49Z"/><path class="cls-2" d="M1557.84,185q.62-2.88,1-5.85l-64.32,64.32c2-.26,3.93-.61,5.85-1Z"/><path class="cls-2" d="M1550.47,204.87l-30.19,30.19A75.24,75.24,0,0,0,1550.47,204.87Z"/></g><g class="cls-3"><path class="cls-2" d="M1052.17,175.12a6,6,0,1,1,6-6A6,6,0,0,1,1052.17,175.12Zm0-10a4,4,0,1,0,4,4A4,4,0,0,0,1052.17,165.12Z"/></g><path class="cls-2" d="M1336.6,129.09a6,6,0,1,1,6-6A6,6,0,0,1,1336.6,129.09Zm0-10a4,4,0,1,0,4,4A4,4,0,0,0,1336.6,119.09Z"/><g class="cls-3"><path class="cls-2" d="M1492.18,53.86a6,6,0,1,1,6-6A6,6,0,0,1,1492.18,53.86Zm0-10a4,4,0,1,0,4,4A4,4,0,0,0,1492.18,43.86Z"/></g><path class="cls-2" d="M1110.59,113.79l-11,8.09a.65.65,0,0,1-.66.08.68.68,0,0,1-.4-.54l-1.5-13.59a.7.7,0,0,1,.93-.68l12.52,5.5a.64.64,0,0,1,.39.53A.65.65,0,0,1,1110.59,113.79Zm-10.88,6.34,9.16-6.73-10.41-4.57Z"/><path class="cls-2" d="M958,121.66l-9.79-9.54a.67.67,0,0,1,.28-1.12l13.16-3.71a.7.7,0,0,1,.83.81l-3.37,13.25a.67.67,0,0,1-1.11.31ZM950,112l8.14,7.93,2.8-11Z"/><g class="cls-3"><path class="cls-2" d="M1389.8,227.61l-8.21-10.93a.63.63,0,0,1-.08-.66.65.65,0,0,1,.53-.4l13.57-1.64a.69.69,0,0,1,.69.92l-5.36,12.58a.67.67,0,0,1-.53.39A.65.65,0,0,1,1389.8,227.61Zm-6.46-10.81,6.83,9.09,4.46-10.45Z"/></g><g class="cls-3"><path class="cls-2" d="M887.35,33.92a1,1,0,0,1-.71.29h-10a1,1,0,0,1-1-1v-10a1,1,0,0,1,1-1h10a1,1,0,0,1,1,1v10A1,1,0,0,1,887.35,33.92Zm-9.71-1.71h8v-8h-8Z"/></g><path class="cls-2" d="M1260.35,217.61a1,1,0,0,1-.71.29h-10a1,1,0,0,1-1-1v-10a1,1,0,0,1,1-1h10a1,1,0,0,1,1,1v10A1,1,0,0,1,1260.35,217.61Zm-9.71-1.71h8v-8h-8Z"/><g class="cls-3"><path class="cls-2" d="M1279.53,33.92a1,1,0,0,1-.71.29h-10a1,1,0,0,1-.7-.29,1,1,0,0,1-.3-.71v-10a1,1,0,0,1,1-1h10a1,1,0,0,1,.71.29,1,1,0,0,1,.29.71v10A1,1,0,0,1,1279.53,33.92Zm-9.71-1.71h8v-8h-8Z"/></g></g></g></svg>