<svg xmlns:x="http://ns.adobe.com/Extensibility/1.0/" xmlns:i="http://ns.adobe.com/AdobeIllustrator/10.0/" xmlns:graph="http://ns.adobe.com/Graphs/1.0/" xmlns="http://www.w3.org/2000/svg" xmlns:xlink="http://www.w3.org/1999/xlink" xmlns:a="http://ns.adobe.com/AdobeSVGViewerExtensions/3.0/" version="1.1" x="0px" y="0px" viewBox="0 0 64 80" enable-background="new 0 0 64 64" xml:space="preserve"><g><path d="M-23.682-45.833l-2.842-0.953v-18.79c0-0.552-0.447-1-1-1h-3.549c-0.553,0-1,0.448-1,1v16.93l-1.264-0.424v-16.506   c0-0.552-0.447-1-1-1h-3.54c-0.553,0-1,0.448-1,1v14.648l-1.271-0.426v-14.222c0-0.552-0.447-1-1-1h-3.54c-0.553,0-1,0.448-1,1   v12.364l-1.532-0.514v-5.283c0-0.322-0.155-0.624-0.416-0.812c-0.262-0.188-0.596-0.239-0.902-0.136l-11.398,3.826   c-0.216-0.396-0.472-0.757-0.774-1.066c0.031-0.395,0.047-0.791,0.047-1.183c0-3.038-0.868-6.103-2.807-6.103   s-2.807,3.065-2.807,6.103c0,0.396,0.016,0.792,0.046,1.184c-0.128,0.131-0.249,0.271-0.361,0.419   c0.005-0.118,0.008-0.237,0.008-0.356c0-1.868-0.697-3.611-1.888-4.776c0.046-0.541,0.068-1.094,0.068-1.653   c0-3.68-1.048-7.641-3.348-7.641c-2.303,0-3.352,3.961-3.352,7.641c0,0.567,0.023,1.122,0.07,1.655   c-1.191,1.167-1.89,2.909-1.89,4.774c0,0.407,0.034,0.813,0.103,1.212c-1.17,0.92-1.893,2.485-1.893,4.196   c0,0.625,0.105,1.229,0.288,1.797l-1.894,0.636C-80.726-49.155-81-48.773-81-48.344v14.547c0,0.552,0.447,1,1,1h56   c0.553,0,1-0.448,1-1v-11.089C-23-45.315-23.274-45.697-23.682-45.833z M-36.876-60.51h1.54v10.767l-1.54-0.517V-60.51z    M-35.336-64.577v2.067h-1.54v-2.067H-35.336z M-43.688-60.51h1.54v8.483l-1.54-0.519V-60.51z M-42.147-64.577v2.067h-1.54v-2.067   H-42.147z M-75.241-54.57c0.425-0.216,0.638-0.701,0.51-1.16c-0.127-0.456-0.191-0.928-0.191-1.404   c0-1.472,0.582-2.811,1.558-3.582c0.273-0.216,0.414-0.559,0.373-0.904c-0.074-0.612-0.111-1.266-0.111-1.943   c0-3.585,0.995-5.492,1.313-5.647c0.395,0.155,1.387,2.062,1.387,5.647c0,0.666-0.036,1.322-0.107,1.951   c-0.038,0.343,0.103,0.683,0.374,0.897c0.973,0.769,1.553,2.107,1.553,3.582c0,0.49-0.063,0.964-0.187,1.408   c-0.128,0.458,0.084,0.942,0.508,1.159c0.307,0.157,0.59,0.407,0.822,0.726c0.011,0.018,0.022,0.036,0.035,0.053   c0.03,0.043,0.06,0.087,0.088,0.133l-9.223,3.092c-0.113-0.363-0.172-0.755-0.172-1.162C-76.713-52.979-76.121-54.122-75.241-54.57   z M-65.389-54.303c-0.041-0.081-0.083-0.16-0.127-0.237c0.184-0.606,0.519-1.129,0.948-1.469c0.271-0.214,0.411-0.553,0.373-0.896   c-0.056-0.484-0.083-0.98-0.083-1.475c0-2.149,0.492-3.521,0.809-3.982c0.314,0.459,0.805,1.83,0.805,3.982   c0,0.489-0.028,0.985-0.084,1.475c-0.038,0.344,0.104,0.684,0.376,0.898c0.183,0.144,0.35,0.322,0.495,0.526l-2.173,0.729   L-65.389-54.303z M-49.22-34.796H-79v-12.828l29.78-9.994V-34.796z M-28.523-64.577v2.067h-1.549v-2.067H-28.523z M-30.072-60.51   h1.549v13.053l-1.549-0.52V-60.51z M-25-34.796h-22.22v-16.821L-25-44.166V-34.796z"/><rect x="-45.603" y="-43.521" width="2.994" height="2.794"/><rect x="-41.606" y="-43.521" width="3.002" height="2.794"/><rect x="-37.611" y="-43.521" width="3.003" height="2.794"/><rect x="-33.606" y="-43.521" width="2.993" height="2.794"/><rect x="-29.611" y="-43.521" width="3.003" height="2.794"/><rect x="-45.603" y="-39.521" width="2.994" height="2.794"/><rect x="-41.606" y="-39.521" width="3.002" height="2.794"/><rect x="-37.611" y="-39.521" width="3.003" height="2.794"/><rect x="-33.606" y="-39.521" width="2.993" height="2.794"/><rect x="-29.611" y="-39.521" width="3.003" height="2.794"/><rect x="-71.604" y="-43.521" width="2.993" height="2.794"/><rect x="-75.608" y="-43.521" width="3.002" height="2.794"/><rect x="-67.608" y="-43.521" width="3.002" height="2.794"/><rect x="-63.604" y="-43.521" width="2.993" height="2.794"/><rect x="-59.608" y="-43.521" width="2.997" height="2.794"/><rect x="-55.608" y="-43.521" width="2.997" height="2.794"/><rect x="-71.604" y="-39.521" width="2.993" height="2.794"/><rect x="-75.608" y="-39.521" width="3.002" height="2.794"/><rect x="-67.608" y="-39.521" width="3.002" height="2.794"/><rect x="-63.604" y="-39.521" width="2.993" height="2.794"/><rect x="-59.608" y="-39.521" width="2.997" height="2.794"/><rect x="-55.608" y="-39.521" width="2.997" height="2.794"/></g><g><path d="M-282.267,43.352c0.552,0,1-0.448,1-1v-8.289c0-0.552-0.448-1-1-1s-1,0.448-1,1v8.289   C-283.267,42.904-282.819,43.352-282.267,43.352z"/><path d="M-289.852,43.352c0.552,0,1-0.448,1-1v-8.289c0-0.552-0.448-1-1-1s-1,0.448-1,1v8.289   C-290.852,42.904-290.404,43.352-289.852,43.352z"/><path d="M-325.729,43.352c0.552,0,1-0.448,1-1v-8.289c0-0.552-0.448-1-1-1s-1,0.448-1,1v8.289   C-326.729,42.904-326.282,43.352-325.729,43.352z"/><path d="M-317.979,33.063c-0.552,0-1,0.448-1,1v8.289c0,0.552,0.448,1,1,1s1-0.448,1-1v-8.289   C-316.979,33.511-317.427,33.063-317.979,33.063z"/><path d="M-276,31.759c0.552,0,1-0.448,1-1v-2.832c0-0.552-0.448-1-1-1h-1.071l-2.582-3.526c-0.377-0.514-1.236-0.514-1.613,0   l-2.582,3.526h-2.143l-2.582-3.526c-0.377-0.514-1.236-0.514-1.613,0l-2.582,3.526h-0.071l-0.001-2.28   c0-0.368-0.203-0.707-0.527-0.881l-9.632-5.169v-2.438l3.686-1.953c0.327-0.173,0.532-0.514,0.532-0.884   c0-0.371-0.205-0.71-0.532-0.884l-3.686-1.95v-0.124c0-0.552-0.448-1-1-1s-1,0.448-1,1v0.726v4.466v3.039l-9.637,5.17   c-0.325,0.174-0.527,0.513-0.527,0.881l0,2.28h-0.07l-2.583-3.527c-0.188-0.256-0.488-0.408-0.806-0.408c0,0,0,0,0,0   c-0.318,0-0.618,0.152-0.806,0.409l-2.582,3.526h-2.14l-2.583-3.527c-0.188-0.256-0.488-0.408-0.806-0.408c0,0,0,0,0,0   c-0.318,0-0.618,0.152-0.806,0.409l-2.582,3.526H-332c-0.552,0-1,0.448-1,1v2.832c0,0.552,0.448,1,1,1h1.413v12.897H-332   c-0.552,0-1,0.448-1,1v2.828c0,0.368,0.208,0.676,0.504,0.85c-0.313,0.526-0.504,1.132-0.504,1.787   c0,1.938,1.578,3.515,3.517,3.515h50.432c2.234,0,4.052-1.817,4.052-4.052c0-0.503-0.104-0.979-0.271-1.424   c0.165-0.178,0.271-0.413,0.271-0.675v-2.828c0-0.552-0.448-1-1-1h-1.409V31.759H-276z M-302.998,12.751l1.081,0.572l-1.081,0.572   V12.751z M-280.46,25.683l0.911,1.244h-1.821L-280.46,25.683z M-289.379,25.683l0.911,1.244h-1.821L-289.379,25.683z    M-292.836,31.759h5.712v12.897h-0.995c-0.841-0.719-1.879-1.164-3.018-1.164c-0.596,0-1.165,0.119-1.695,0.33L-292.836,31.759z    M-279.409,44.656h-5.715V31.759h5.715V44.656z M-280.019,46.656c-0.77,0.189-1.472,0.591-2.011,1.173   c-1.331-0.502-2.909-0.1-3.841,0.92c-0.093-0.039-0.188-0.073-0.285-0.103c-0.047-0.708-0.216-1.379-0.48-1.99H-280.019z    M-313.163,27.898l0-2.653l9.132-4.899c0.011,0,0.021,0.006,0.032,0.006s0.021-0.006,0.032-0.006l9.126,4.898l0.001,2.676   c0,0.002-0.001,0.003-0.001,0.005v2.832c0,0.004,0.002,0.007,0.002,0.011l0.006,14.537c-0.521,0.636-0.916,1.406-1.127,2.265   c-0.781-0.139-1.622-0.11-2.393,0.087c-0.433-0.655-1.027-1.172-1.715-1.518v-8.191c0-0.552-0.448-1-1-1h-5.866   c-0.552,0-1,0.448-1,1v9.928c-0.424,0.179-0.812,0.439-1.138,0.769c-0.171-2.544-1.884-4.611-4.096-5.058l0.001-12.79   c0-0.013,0.001-0.026,0.001-0.039v-2.832C-313.163,27.917-313.163,27.908-313.163,27.898z M-302.066,45.659   c-0.009,0-0.017-0.001-0.026-0.001c-1.507,0-2.89,0.75-3.713,1.967c-0.041-0.004-0.085-0.004-0.127-0.006v-8.669h3.866V45.659z    M-322.874,44.656h-5.713V31.759h5.713V44.656z M-318.571,46.674c-0.07,0.164-0.12,0.338-0.176,0.51   c-0.036,0.114-0.082,0.223-0.111,0.339c-0.004,0.017-0.012,0.031-0.016,0.048c-0.783-0.141-1.623-0.109-2.388,0.087   c-0.255-0.385-0.569-0.718-0.921-1.002h3.618C-318.568,46.662-318.569,46.668-318.571,46.674z M-317.118,44.656h-3.756V31.759h5.71   l-0.001,11.888C-315.886,43.828-316.553,44.168-317.118,44.656z M-318.622,25.683l0.912,1.244h-1.823L-318.622,25.683z    M-327.54,25.683l0.912,1.244h-1.823L-327.54,25.683z M-331,29.759v-0.832h0.579h5.764h3.154h5.764h0.577v0.832H-331z    M-327.807,46.656c-0.362,0.291-0.686,0.63-0.946,1.022c-0.239-0.051-0.484-0.077-0.731-0.077c-0.545,0-1.056,0.135-1.517,0.358   v-1.304H-327.807z M-279.052,52.636h-50.432c-0.836,0-1.517-0.68-1.517-1.515c0-0.837,0.68-1.519,1.517-1.519   c0.256,0,0.508,0.065,0.729,0.187c0.254,0.142,0.557,0.167,0.831,0.065c0.273-0.1,0.489-0.314,0.591-0.586   c0.363-0.964,1.3-1.611,2.33-1.611c1.036,0,1.949,0.625,2.325,1.593c0.101,0.258,0.303,0.462,0.56,0.565   c0.256,0.103,0.544,0.095,0.795-0.022c0.852-0.397,2.015-0.404,2.857-0.021c0.303,0.139,0.655,0.117,0.939-0.058   c0.284-0.175,0.462-0.48,0.475-0.813c0.007-0.173,0.035-0.338,0.061-0.503c0.018-0.108,0.036-0.216,0.062-0.321   c0.025-0.104,0.057-0.203,0.089-0.302c0.036-0.111,0.073-0.221,0.118-0.327c0.034-0.08,0.074-0.155,0.113-0.232   c0.059-0.115,0.12-0.23,0.19-0.337c0.034-0.053,0.073-0.101,0.11-0.151c0.088-0.12,0.179-0.237,0.281-0.343   c0.529-0.552,1.216-0.894,1.973-0.894c1.654,0,3,1.603,3,3.574c0,0.114-0.004,0.232-0.015,0.346   c-0.023,0.279,0.081,0.556,0.27,0.762c0.189,0.207,0.467,0.324,0.747,0.324c0.264,0,0.515,0.076,0.728,0.22   c0.232,0.156,0.517,0.207,0.791,0.144c0.272-0.064,0.504-0.24,0.641-0.484c0.269-0.478,0.775-0.775,1.279-0.776l0.276,0.008   l0.153-0.007c0.185,0,0.365,0.033,0.536,0.098c0.5,0.19,1.063-0.047,1.274-0.54c0.392-0.913,1.288-1.502,2.283-1.502   c1.037,0,1.949,0.625,2.323,1.591c0.1,0.257,0.302,0.462,0.558,0.566c0.256,0.104,0.544,0.097,0.794-0.02   c0.869-0.402,2.029-0.403,2.87-0.021c0.302,0.137,0.656,0.115,0.939-0.06c0.284-0.175,0.461-0.48,0.474-0.814   c0.07-1.911,1.386-3.407,2.997-3.407c1.652,0,2.996,1.603,2.996,3.574c0,0.124-0.007,0.25-0.015,0.374   c-0.016,0.275,0.09,0.544,0.279,0.744c0.189,0.201,0.46,0.314,0.735,0.314c0.333,0,0.646,0.121,0.878,0.339   c0.237,0.222,0.567,0.314,0.884,0.251c0.318-0.065,0.585-0.28,0.715-0.577c0.375-0.854,1.573-1.168,2.316-0.595   c0.232,0.179,0.531,0.249,0.816,0.186c0.286-0.06,0.531-0.242,0.671-0.499c0.362-0.663,1.055-1.075,1.808-1.075   c1.131,0,2.052,0.922,2.052,2.056C-277,51.715-277.92,52.636-279.052,52.636z M-277,46.656v0.45c-0.336-0.199-0.7-0.354-1.089-0.45   H-277z M-292.837,29.759l0-0.832h0.578h5.762h3.158h5.762H-277v0.832H-292.837z"/><path d="M-304.002,32.524c2,0,3.626-1.627,3.626-3.626c0-2-1.627-3.627-3.626-3.627c-1.999,0-3.625,1.627-3.625,3.627   C-307.626,30.897-306,32.524-304.002,32.524z M-304.002,27.271c0.897,0,1.626,0.73,1.626,1.627s-0.729,1.626-1.626,1.626   c-0.896,0-1.625-0.729-1.625-1.626S-304.898,27.271-304.002,27.271z"/></g><path d="M-112.157,45.628c-0.227,0-0.449,0.015-0.668,0.042v-5.356c0-0.552-0.448-1-1-1h-1.913V18.801h0.725c0.553,0,1-0.448,1-1  v-2.724c0-0.552-0.447-1-1-1h-1.158c-0.209-1.318-1.169-2.379-2.422-2.76V9.064c0-0.552-0.448-1-1-1c-0.553,0-1,0.448-1,1v2.252  c-1.257,0.38-2.221,1.441-2.431,2.761h-1.15c-0.552,0-1,0.448-1,1v2.724c0,0.552,0.448,1,1,1h0.726v20.514h-0.905v-1.302  c0-0.552-0.447-1-1-1h-0.776c0.013-0.208,0.02-0.417,0.02-0.627c0-4.62-3.187-8.509-7.476-9.583  c0.175-0.082,0.344-0.176,0.507-0.283c0.462-0.303,0.591-0.923,0.287-1.385c-0.302-0.461-0.921-0.591-1.385-0.287  c-0.333,0.218-0.72,0.334-1.118,0.334c-1.129,0-2.047-0.917-2.047-2.043s0.918-2.042,2.047-2.042c0.398,0,0.785,0.116,1.118,0.334  c0.464,0.305,1.083,0.175,1.385-0.287c0.304-0.462,0.175-1.082-0.287-1.385c-0.66-0.433-1.427-0.662-2.216-0.662  c-2.231,0-4.047,1.813-4.047,4.042c0,1.47,0.789,2.759,1.966,3.467c-4.789,0.678-8.485,4.806-8.485,9.781  c0,0.209,0.007,0.419,0.021,0.627h-0.771c-0.553,0-1,0.448-1,1v1.302h-0.911V18.801h0.728c0.552,0,1-0.448,1-1v-2.724  c0-0.552-0.448-1-1-1h-1.159c-0.209-1.318-1.17-2.38-2.424-2.76V9.064c0-0.552-0.447-1-1-1c-0.552,0-1,0.448-1,1v2.252  c-1.255,0.38-2.217,1.441-2.427,2.76h-1.156c-0.552,0-1,0.448-1,1v2.724c0,0.552,0.448,1,1,1h0.728v20.514h-1.907  c-0.552,0-1,0.448-1,1v2.15c-2.329,0.466-4.09,2.528-4.09,4.994c0,0.276,0.021,0.549,0.065,0.819  c-1.13,0.771-1.825,2.054-1.825,3.46c0,2.314,1.882,4.198,4.195,4.198h48.64c2.839,0,5.149-2.31,5.149-5.149  C-107.008,47.942-109.318,45.628-112.157,45.628z M-119.594,13.156c0.615,0,1.143,0.382,1.359,0.921h-2.727  C-120.743,13.538-120.213,13.156-119.594,13.156z M-123.175,16.077h7.161v0.724h-0.725h-6.437V16.077z M-117.738,18.801v20.514  h-3.711V18.801H-117.738z M-135.986,28.507c4.342,0,7.875,3.534,7.875,7.878c0,0.21-0.008,0.42-0.024,0.627h-15.701  c-0.017-0.208-0.025-0.417-0.025-0.627C-143.862,32.041-140.329,28.507-135.986,28.507z M-145.613,39.013h19.259v12.604h-4.663  v-6.526c0-2.741-2.229-4.97-4.969-4.97c-2.741,0-4.972,2.229-4.972,4.97v6.526h-4.655V39.013z M-133.018,45.091v6.526h-5.94v-6.526  c0-1.638,1.333-2.97,2.972-2.97C-134.349,42.121-133.018,43.453-133.018,45.091z M-152.38,13.156c0.616,0,1.145,0.382,1.361,0.921  h-2.726C-153.526,13.538-152.997,13.156-152.38,13.156z M-155.963,16.077h7.166v0.724h-0.728h-6.438V16.077z M-150.524,18.801  v20.514h-3.711V18.801H-150.524z M-153.295,51.741C-153.295,51.741-153.295,51.741-153.295,51.741  c-0.002,1.21-0.985,2.194-2.193,2.194h-5.309c-1.21,0-2.195-0.986-2.195-2.198c0-0.891,0.534-1.687,1.361-2.029  c0.488-0.202,0.735-0.749,0.564-1.248c-0.11-0.322-0.166-0.659-0.166-1.002c0-1.705,1.386-3.092,3.09-3.092s3.091,1.387,3.091,3.092  c0,0.341-0.057,0.678-0.168,1.001c-0.036,0.107-0.054,0.217-0.054,0.325c0,0.394,0.234,0.766,0.618,0.924  c0.826,0.341,1.36,1.138,1.36,2.029C-153.295,51.739-153.295,51.74-153.295,51.741z M-153.118,48.278  c0.044-0.271,0.066-0.544,0.066-0.82c0-2.466-1.761-4.528-4.091-4.994v-1.15h9.529v10.302h-3.684  C-151.335,50.258-152.021,49.027-153.118,48.278z M-151.911,53.936c0.063-0.103,0.121-0.209,0.176-0.319h29.921  c0.048,0.109,0.101,0.215,0.157,0.319H-151.911z M-122.104,51.617h-2.251V41.315h9.529v5.053c-0.844,0.508-1.531,1.254-1.968,2.156  c-0.466-0.195-0.971-0.3-1.482-0.3C-120.245,48.224-121.875,49.708-122.104,51.617z M-112.157,53.936h-6.118  c-0.001,0-0.002,0-0.003,0c0,0-0.001,0-0.003,0h-0.001c-0.001,0-0.002,0-0.003,0s-0.002,0-0.003,0s-0.001,0-0.003,0  c-0.208-0.002-0.408-0.038-0.597-0.104c-0.723-0.253-1.242-0.941-1.244-1.75c0-0.001,0-0.002,0-0.003  c0-1.023,0.833-1.855,1.856-1.855c0.492,0,0.969,0.201,1.308,0.55c0.001,0.001,0.003,0.002,0.004,0.004  c0.005,0.005,0.01,0.009,0.015,0.014c0.004,0.004,0.007,0.007,0.011,0.011c0,0,0,0,0,0c0.002,0.001,0.003,0.002,0.005,0.004  c0,0,0,0,0,0c0.001,0,0.001,0.001,0.003,0.002v0c0.137,0.127,0.303,0.211,0.48,0.247c0.161,0.033,0.332,0.026,0.497-0.024  c0.15-0.047,0.284-0.127,0.395-0.232c0,0,0.001-0.001,0.001-0.001c0.001,0,0.002-0.001,0.002-0.001c0.001,0,0.001-0.001,0.002-0.001  c0,0,0.001-0.001,0.001-0.001c0.001,0,0.001-0.001,0.002-0.001c0,0,0.001-0.001,0.001-0.001c0,0,0.001-0.001,0.002-0.001  c0,0,0.001,0,0.001-0.001c0.001,0,0.001,0,0.002-0.001c0.001,0,0.001,0,0.001-0.001c0,0,0.001,0,0.001,0  c0.001,0,0.001-0.001,0.001-0.001c0.003-0.002,0.001-0.001,0.002-0.001c0.001-0.002,0.002-0.001,0.002-0.001  c0-0.002,0-0.001,0.001-0.002l0.001,0c0,0,0,0,0.001-0.001v0c0.002-0.002,0.002-0.001,0.002-0.001c0,0,0.001-0.001,0.001-0.001  c0,0,0,0,0,0c0.001,0,0.001-0.001,0.002-0.001c0,0,0.001-0.001,0.001-0.001c0.001,0,0.001-0.001,0.002-0.001  c0,0,0.001-0.001,0.001-0.001c0.134-0.141,0.227-0.319,0.262-0.518c0.184-1.047,0.872-1.929,1.843-2.357  c0.02-0.008,0.038-0.017,0.057-0.027c0.373-0.154,0.781-0.238,1.208-0.238c1.736,0,3.149,1.417,3.149,3.158  C-109.008,52.523-110.421,53.936-112.157,53.936z"/><g><path d="M29.144,33.665c-0.553,0-1,0.448-1,1s0.447,1,1,1h6.494c0.553,0,1-0.448,1-1s-0.447-1-1-1H29.144z"/><path d="M35.638,37.331h-6.494c-0.553,0-1,0.448-1,1s0.447,1,1,1h6.494c0.553,0,1-0.448,1-1S36.19,37.331,35.638,37.331z"/><path d="M35.638,40.997h-6.494c-0.553,0-1,0.448-1,1s0.447,1,1,1h6.494c0.553,0,1-0.448,1-1S36.19,40.997,35.638,40.997z"/><path d="M58.285,47.085c0.997-1.161,1.551-2.597,1.551-4.112c0-1.349-0.44-2.65-1.257-3.75c0.969-1.144,1.493-2.534,1.493-3.997   c0-1.796-0.821-3.507-2.241-4.755c0.686-0.917,1.054-1.995,1.054-3.126c0-2.037-1.199-3.868-3.124-4.877   c0.262-0.949,0.397-2.017,0.397-3.143c0-3.815-1.577-6.692-3.669-6.692c-2.087,0-3.661,2.877-3.661,6.692   c0,1.124,0.136,2.192,0.397,3.141c-1.93,1.008-3.131,2.84-3.131,4.878c0,0.226,0.041,0.444,0.07,0.664H42.65v-8.055   c0-0.374-0.209-0.717-0.541-0.889l-8.719-4.495v-3.712h2.995c0.553,0,1-0.448,1-1V7.487c0-0.552-0.447-1-1-1h-3.995   c-0.553,0-1,0.448-1,1v7.084c-2.91,1.498-5.814,2.996-8.719,4.496c-0.332,0.172-0.541,0.515-0.541,0.889v8.055h-7.536   c-0.369,0-0.708,0.203-0.882,0.529l-2.677,5.012c-0.081,0.145-0.127,0.311-0.127,0.488v10.259c-0.071-0.003-0.14-0.021-0.212-0.021   c-2.508,0-4.548,2.038-4.548,4.543c0,0.171,0.01,0.341,0.028,0.51C4.357,49.768,3,51.411,3,53.364c0,2.288,1.861,4.149,4.149,4.149   l48.253-0.053c3.087,0,5.598-2.507,5.598-5.589C61,49.841,59.909,48.065,58.285,47.085z M7.149,55.513   C5.964,55.513,5,54.549,5,53.364s0.964-2.149,2.149-2.149c0.069,0,0.139,0.007,0.208,0.013c0.347,0.026,0.689-0.127,0.896-0.412   c0.205-0.285,0.246-0.658,0.107-0.98c-0.141-0.326-0.212-0.668-0.212-1.017c0-1.402,1.143-2.543,2.548-2.543   s2.548,1.141,2.548,2.543c0,0.714-0.282,1.37-0.796,1.847c-0.287,0.267-0.392,0.676-0.269,1.048   c0.124,0.372,0.453,0.637,0.843,0.678c0.799,0.085,1.401,0.755,1.401,1.557c0,0.862-0.701,1.563-1.563,1.563H7.149z M22.131,55.513   h-6.083c0.233-0.474,0.377-1,0.377-1.563c0-1.276-0.669-2.404-1.691-3.035c0.332-0.64,0.512-1.359,0.512-2.096   c0-1.699-0.949-3.166-2.336-3.945v-9.835h9.222V55.513z M22.131,33.039h-8.554l1.617-3.029h6.937V33.039z M35.386,8.859h-1.995   V8.487h1.995V8.859z M34.06,55.513h-3.346v-7.598h3.346V55.513z M40.65,55.513H36.06v-8.598c0-0.552-0.447-1-1-1h-5.346   c-0.553,0-1,0.448-1,1v8.598h-4.583V20.564c2.751-1.42,5.502-2.839,8.26-4.258l8.26,4.259V55.513z M48.095,27.346   c0-1.48,1.06-2.808,2.699-3.384c0.258-0.09,0.467-0.282,0.579-0.53c0.113-0.248,0.119-0.532,0.019-0.785   c-0.363-0.906-0.563-2.085-0.563-3.32c0-2.911,1.075-4.692,1.661-4.692c0.589,0,1.669,1.781,1.669,4.692   c0,1.237-0.2,2.416-0.563,3.32c-0.102,0.253-0.096,0.537,0.017,0.785c0.112,0.248,0.321,0.44,0.579,0.531   c1.636,0.576,2.693,1.904,2.693,3.384c0,0.939-0.426,1.833-1.199,2.515c-0.237,0.208-0.361,0.517-0.336,0.831   c0.026,0.314,0.198,0.599,0.466,0.766c1.435,0.899,2.257,2.273,2.257,3.769c0,1.201-0.537,2.34-1.512,3.208   c-0.205,0.183-0.326,0.442-0.335,0.717c-0.008,0.274,0.098,0.541,0.292,0.735c0.85,0.854,1.318,1.95,1.318,3.086   c0,1.281-0.596,2.486-1.636,3.368c-0.262-0.038-0.526-0.063-0.798-0.063c-0.529,0-1.042,0.078-1.53,0.217V34.039   c0-0.177-0.046-0.344-0.127-0.488l-2.677-5.012c-0.174-0.326-0.513-0.529-0.882-0.529h-2.018   C48.121,27.794,48.095,27.572,48.095,27.346z M42.65,30.01h6.937l1.617,3.029H42.65V30.01z M42.65,35.039h9.222v12.502   c-0.646,0.528-1.181,1.193-1.54,1.968c-0.526-0.235-1.103-0.359-1.699-0.359c-2.292,0-4.157,1.863-4.157,4.153   c0,0.814,0.244,1.568,0.649,2.21H42.65V35.039z M55.402,55.46h-6.77c-1.189,0-2.157-0.968-2.157-2.157   c0-1.188,0.968-2.153,2.157-2.153c0.583,0,1.128,0.227,1.532,0.638c0.264,0.267,0.654,0.364,1.011,0.253   c0.358-0.112,0.623-0.415,0.688-0.784c0.3-1.727,1.788-2.979,3.539-2.979c1.983,0,3.598,1.612,3.598,3.594   C59,53.85,57.386,55.46,55.402,55.46z"/><path d="M28.99,27.331c0,1.871,1.525,3.393,3.4,3.393c1.871,0,3.393-1.522,3.393-3.393s-1.521-3.392-3.393-3.392   C30.516,23.939,28.99,25.46,28.99,27.331z M33.783,27.331c0,0.768-0.625,1.393-1.393,1.393c-0.772,0-1.4-0.625-1.4-1.393   c0-0.768,0.628-1.392,1.4-1.392C33.158,25.939,33.783,26.563,33.783,27.331z"/><rect x="14.847" y="44.474" width="1.782" height="1.603"/><rect x="14.847" y="40.438" width="1.782" height="1.599"/><rect x="14.847" y="36.439" width="1.782" height="1.599"/><rect x="18.402" y="44.474" width="1.782" height="1.603"/><rect x="18.402" y="40.438" width="1.782" height="1.599"/><rect x="18.402" y="36.439" width="1.782" height="1.599"/><rect x="48.145" y="44.474" width="1.79" height="1.603"/><rect x="48.145" y="40.438" width="1.79" height="1.599"/><rect x="48.145" y="36.439" width="1.79" height="1.599"/><rect x="44.588" y="44.474" width="1.782" height="1.603"/><rect x="44.588" y="40.438" width="1.782" height="1.599"/><rect x="44.588" y="36.439" width="1.782" height="1.599"/></g><g><path d="M-291.327-44.943h-5.521c-0.552,0-1,0.448-1,1v4.962c0,0.552,0.448,1,1,1h5.521c0.552,0,1-0.448,1-1v-4.962   C-290.327-44.495-290.775-44.943-291.327-44.943z M-292.327-39.98h-3.521v-2.962h3.521V-39.98z"/><path d="M-284.962-35.512c-0.076,0-0.148,0.014-0.223,0.017v-8.912h5.259c0.388,0,0.74-0.224,0.905-0.575   c0.165-0.351,0.112-0.765-0.135-1.063l-28.668-34.593c-0.269-0.325-0.712-0.444-1.109-0.303c-0.396,0.143-0.661,0.52-0.661,0.941   v23.132l-2.702,3.26c-0.135-0.143-0.266-0.292-0.412-0.422c0.444-0.795,0.682-1.706,0.682-2.646c0-1.753-0.822-3.354-2.156-4.311   c0.228-0.675,0.35-1.436,0.35-2.221c0-2.694-1.343-4.727-3.124-4.727c-1.781,0-3.125,2.032-3.125,4.727   c0,0.786,0.121,1.547,0.348,2.221c-1.334,0.957-2.157,2.558-2.157,4.312c0,0.94,0.238,1.851,0.683,2.646   c-1.492,1.319-2.358,3.26-2.358,5.371c0,2.205,0.97,4.229,2.579,5.54l-2.622,3.164c-0.247,0.298-0.3,0.713-0.135,1.063   c0.165,0.351,0.517,0.575,0.905,0.575h3.5v3.022c-0.869-0.707-1.961-1.148-3.165-1.148c-2.784,0-5.049,2.265-5.049,5.049   c0,0.269,0.021,0.537,0.064,0.801c-1.117,0.765-1.803,2.036-1.803,3.431c0,2.296,1.867,4.164,4.162,4.164h5.254h27.164h7.751   c3.45,0,6.256-2.806,6.256-6.256S-281.513-35.512-284.962-35.512z M-321.567-48.661c0-1.764,0.868-3.417,2.266-4.312   c0.245-0.157,0.409-0.412,0.45-0.7c0.042-0.288-0.044-0.579-0.235-0.798c-0.519-0.597-0.805-1.38-0.805-2.206   c0-1.316,0.72-2.486,1.835-2.979c0.259-0.115,0.457-0.333,0.545-0.602s0.059-0.562-0.081-0.808   c-0.312-0.548-0.491-1.329-0.491-2.144c0-1.691,0.728-2.727,1.125-2.727s1.124,1.035,1.124,2.727c0,0.813-0.18,1.594-0.493,2.144   c-0.14,0.246-0.169,0.539-0.081,0.808s0.286,0.487,0.545,0.602c1.115,0.494,1.835,1.663,1.835,2.979   c0,0.825-0.286,1.609-0.804,2.208c-0.19,0.22-0.275,0.511-0.234,0.799c0.042,0.288,0.207,0.542,0.452,0.699   c0.384,0.245,0.717,0.571,1.021,0.927l-6.122,7.387C-320.87-45.592-321.567-47.057-321.567-48.661z M-327.293-27.164   c0-0.88,0.525-1.665,1.337-1.999c0.489-0.201,0.737-0.748,0.566-1.248c-0.109-0.32-0.165-0.651-0.165-0.985   c0-1.681,1.368-3.049,3.049-3.049c1.68,0,3.047,1.368,3.047,3.049c0,0.337-0.055,0.67-0.165,0.99   c-0.171,0.5,0.077,1.046,0.565,1.248c0.021,0.008,0.036,0.025,0.057,0.034c0.094,0.084,0.203,0.15,0.324,0.194   c0.586,0.397,0.959,1.043,0.959,1.771c0,1.191-0.969,2.16-2.16,2.16h-5.254C-326.324-25-327.293-25.971-327.293-27.164z    M-308.007-25h-3.521v-7.92h3.521V-25z M-303.214-25h-2.793v-8.92c0-0.552-0.448-1-1-1h-5.521c-0.552,0-1,0.448-1,1V-25h-2.812   c0.387-0.632,0.622-1.367,0.622-2.16c0-1.314-0.616-2.514-1.623-3.289v-8.87c0-0.552-0.448-1-1-1h-2.372l17.499-21.115V-25z    M-301.875-65.149c-0.397-0.143-0.84-0.022-1.109,0.303l-4.611,5.564v-17.944l25.541,30.819h-4.131c-0.552,0-1,0.448-1,1v10.316   c-1.563,0.592-2.841,1.776-3.515,3.325c-0.619-0.301-1.303-0.459-2.013-0.459c-2.543,0-4.613,2.069-4.613,4.612   c0,0.97,0.304,1.869,0.818,2.613h-4.706v-39.208C-301.214-64.629-301.478-65.006-301.875-65.149z M-284.962-25h-7.751   c-1.441,0-2.613-1.172-2.613-2.613c0-1.44,1.172-2.612,2.613-2.612c0.704,0,1.364,0.275,1.857,0.775   c0.264,0.266,0.656,0.361,1.012,0.251c0.357-0.113,0.622-0.416,0.686-0.785c0.35-2.044,2.115-3.528,4.196-3.528   c2.347,0,4.256,1.909,4.256,4.256S-282.616-25-284.962-25z"/><path d="M-297.093-45.989h6.01c0.552,0,1-0.448,1-1s-0.448-1-1-1h-6.01c-0.552,0-1,0.448-1,1S-297.645-45.989-297.093-45.989z"/></g><g><path d="M-235.84-34.271h6.116c0.552,0,1-0.448,1-1s-0.448-1-1-1h-6.116c-0.552,0-1,0.448-1,1S-236.393-34.271-235.84-34.271z"/><path d="M-235.84-38.006h6.116c0.552,0,1-0.448,1-1s-0.448-1-1-1h-6.116c-0.552,0-1,0.448-1,1S-236.393-38.006-235.84-38.006z"/><path d="M-221.489-65.723h5.727c0.552,0,1-0.448,1-1v-5.764c0-0.552-0.448-1-1-1h-5.727c-0.552,0-1,0.448-1,1v5.764   C-222.489-66.171-222.042-65.723-221.489-65.723z M-220.489-71.487h3.727v3.764h-3.727V-71.487z"/><path d="M-221.489-56.725h5.727c0.552,0,1-0.448,1-1v-5.763c0-0.552-0.448-1-1-1h-5.727c-0.552,0-1,0.448-1,1v5.763   C-222.489-57.173-222.042-56.725-221.489-56.725z M-220.489-62.488h3.727v3.763h-3.727V-62.488z"/><path d="M-215.762-47.685c0.574,0,1.042-0.464,1.042-1.042v-5.737v-0.026c0-0.576-0.468-1.042-1.042-1.042h-5.701h-0.026   c-0.576,0-1.042,0.466-1.042,1.042v5.739v0.024c0,0.578,0.466,1.042,1.042,1.042h5.699H-215.762z M-216.804-49.768h-3.646v-3.681   h3.646V-49.768z"/><path d="M-212.568-65.723h5.729c0.552,0,1-0.448,1-1v-5.764c0-0.552-0.448-1-1-1h-5.729c-0.552,0-1,0.448-1,1v5.764   C-213.568-66.171-213.121-65.723-212.568-65.723z M-211.568-71.487h3.729v3.764h-3.729V-71.487z"/><path d="M-212.568-56.725h5.729c0.552,0,1-0.448,1-1v-5.763c0-0.552-0.448-1-1-1h-5.729c-0.552,0-1,0.448-1,1v5.763   C-213.568-57.173-213.121-56.725-212.568-56.725z M-211.568-62.488h3.729v3.763h-3.729V-62.488z"/><path d="M-206.839-47.685c0.574,0,1.042-0.464,1.042-1.042v-5.737v-0.026c0-0.576-0.468-1.042-1.042-1.042h-5.7h-0.029   c-0.574,0-1.042,0.466-1.042,1.042v5.739v0.024c0,0.578,0.468,1.042,1.042,1.042h5.701H-206.839z M-207.881-49.768h-3.646v-3.681   h3.646V-49.768z"/><path d="M-234.685-47.999h3.804c0.552,0,1-0.448,1-1v-3.416c0-0.552-0.448-1-1-1h-3.804c-0.552,0-1,0.448-1,1v3.416   C-235.685-48.447-235.237-47.999-234.685-47.999z M-233.685-51.415h1.804v1.416h-1.804V-51.415z"/><path d="M-234.685-41.347h3.804c0.552,0,1-0.448,1-1v-3.418c0-0.552-0.448-1-1-1h-3.804c-0.552,0-1,0.448-1,1v3.418   C-235.685-41.794-235.237-41.347-234.685-41.347z M-233.685-44.765h1.804v1.418h-1.804V-44.765z"/><path d="M-209.163-45.256h-10.001c-0.553,0-1,0.448-1,0.997c0,0.553,0.447,1.001,1,1.001h10.001c0.549,0,1.001-0.448,1.001-1.001   C-208.162-44.808-208.613-45.256-209.163-45.256z"/><path d="M-193.827-32.284c0.073-0.379,0.109-0.767,0.109-1.16c0-1.902-0.861-3.666-2.333-4.833   c0.052-0.518,0.079-1.052,0.079-1.595c0-3.797-1.344-7.641-3.913-7.641c-0.609,0-1.147,0.221-1.617,0.601v-28.285h1.014   c0.552,0,1-0.448,1-1V-80c0-0.552-0.448-1-1-1h-27.353c-0.552,0-1,0.448-1,1v3.802c0,0.552,0.448,1,1,1h1.016v14.064h-4.05v-12.657   c0-0.552-0.448-1-1-1s-1,0.448-1,1v12.657h-2.769v-6.57c0-0.552-0.448-1-1-1s-1,0.448-1,1v6.57h-4.715c-0.552,0-1,0.448-1,1v3.802   c0,0.552,0.448,1,1,1h1.616v21.233c-1.692,0.564-3.043,1.902-3.607,3.619c-0.134-0.015-0.27-0.022-0.406-0.022   c-2.067,0-3.749,1.683-3.749,3.75s1.682,3.75,3.749,3.75h48.222c2.777,0,5.036-2.257,5.036-5.032   C-191.497-29.784-192.388-31.372-193.827-32.284z M-239.742-25h-5.013c-0.964,0-1.749-0.785-1.749-1.75s0.784-1.75,1.749-1.75   c0.252,0,0.499,0.055,0.733,0.164c0.291,0.135,0.629,0.122,0.909-0.035s0.467-0.438,0.504-0.757c0.217-1.86,1.795-3.262,3.67-3.262   c2.038,0,3.695,1.658,3.695,3.696c0,2.038-1.658,3.695-3.695,3.695H-239.742z M-226.825-25h-7.789   c0.852-0.996,1.37-2.285,1.37-3.695c0-3.074-2.45-5.581-5.499-5.686v-20.95h11.917V-25z M-226.825-57.332h-14.534v-1.802h14.534   V-57.332z M-226.841-77.198V-79h25.353v1.802H-226.841z M-211.123-25h-6.085v-7.249h6.085V-25z M-209.772-34.249h-0.383h-8.399   v-0.682h8.783V-34.249z M-208.772-36.93h-10.783c-0.552,0-1,0.448-1,1v2.682c0,0.552,0.448,1,1,1h0.347V-25h-5.617v-50.198h21.323   v32.293c-0.197,0.962-0.301,1.998-0.301,3.032c0,0.534,0.027,1.068,0.082,1.596c-1.471,1.167-2.332,2.931-2.332,4.833   c0,0.39,0.036,0.776,0.108,1.156c-1.438,0.914-2.33,2.502-2.33,4.252c0,1.145,0.399,2.189,1.045,3.036h-1.893v-7.249h0.351   c0.552,0,1-0.448,1-1v-2.682C-207.772-36.482-208.22-36.93-208.772-36.93z M-196.533-25h-6.706c-1.674,0-3.036-1.362-3.036-3.036   c0-1.236,0.738-2.34,1.879-2.811c0.488-0.201,0.735-0.747,0.565-1.247c-0.148-0.435-0.223-0.889-0.223-1.35   c0-1.433,0.723-2.75,1.935-3.523c0.331-0.211,0.508-0.597,0.452-0.985c-0.09-0.628-0.136-1.274-0.136-1.92   c0-3.499,1.242-5.641,1.917-5.641c0.674,0,1.913,2.142,1.913,5.641c0,0.664-0.044,1.31-0.132,1.92   c-0.056,0.389,0.121,0.774,0.452,0.985c1.212,0.773,1.935,2.09,1.935,3.523c0,0.466-0.076,0.919-0.225,1.347   c-0.175,0.502,0.073,1.053,0.565,1.255c1.143,0.468,1.881,1.571,1.881,2.81C-193.497-26.36-194.858-25-196.533-25z"/></g><g><path d="M-130.253-53.31h5.168c0.552,0,1-0.448,1-1v-10.832c0-0.552-0.448-1-1-1h-5.168c-0.552,0-1,0.448-1,1v10.832   C-131.253-53.757-130.805-53.31-130.253-53.31z M-129.253-64.141h3.168v8.832h-3.168V-64.141z"/><path d="M-133.152-66.141h-5.172c-0.552,0-1,0.448-1,1v10.832c0,0.552,0.448,1,1,1h5.172c0.552,0,1-0.448,1-1v-10.832   C-132.152-65.693-132.6-66.141-133.152-66.141z M-134.152-55.31h-3.172v-8.832h3.172V-55.31z"/><path d="M-138.011-33.886c-0.552,0-1,0.448-1,1v1.598c0,0.552,0.448,1,1,1s1-0.448,1-1v-1.598   C-137.011-33.438-137.458-33.886-138.011-33.886z"/><path d="M-133.461-33.886c-0.552,0-1,0.448-1,1v1.598c0,0.552,0.448,1,1,1s1-0.448,1-1v-1.598   C-132.461-33.438-132.909-33.886-133.461-33.886z"/><path d="M-139.049-69.406h6.625c0.552,0,1-0.448,1-1c0-2.379-1.935-4.314-4.314-4.314c-2.377,0-4.312,1.935-4.312,4.314   C-140.049-69.854-139.602-69.406-139.049-69.406z M-135.738-72.72c0.918,0,1.713,0.537,2.086,1.314h-4.171   C-137.449-72.183-136.655-72.72-135.738-72.72z"/><path d="M-146.393-53.31h5.17c0.552,0,1-0.448,1-1v-10.832c0-0.552-0.448-1-1-1h-5.17c-0.552,0-1,0.448-1,1v10.832   C-147.393-53.757-146.945-53.31-146.393-53.31z M-145.393-64.141h3.17v8.832h-3.17V-64.141z"/><path d="M-135.738-39.859c-0.552,0-1,0.448-1,1v10.531c0,0.552,0.448,1,1,1s1-0.448,1-1v-10.531   C-134.738-39.411-135.186-39.859-135.738-39.859z"/><path d="M-111.328-32.958c-0.745-1.888-2.562-3.152-4.645-3.152c-0.343,0-0.677,0.038-1,0.104v-27.236h3.956   c0.438,0,0.824-0.284,0.955-0.702s-0.026-0.872-0.385-1.121l-22.72-15.735c-0.343-0.237-0.796-0.237-1.139,0l-22.72,15.735   c-0.359,0.249-0.516,0.703-0.385,1.121s0.517,0.702,0.955,0.702h3.958v23.275c-0.189-0.019-0.38-0.029-0.574-0.029   c-3.158,0-5.727,2.568-5.727,5.725c0,0.317,0.025,0.631,0.077,0.939c-2.428,0.435-4.277,2.563-4.277,5.115   c0,2.865,2.331,5.196,5.196,5.196h47.808c2.755,0,4.997-2.242,4.997-4.997C-107-30.524-108.856-32.604-111.328-32.958z    M-153.5-65.243h-1.758l19.52-13.519l19.52,13.519h-1.756c-0.552,0-1,0.448-1,1v29.164c-1.13,0.859-1.898,2.173-1.984,3.679   c-1.458,0.755-2.395,2.257-2.395,3.938c0,0.901,0.273,1.738,0.737,2.439h-1.637v-17.142h2.22c0.552,0,1-0.448,1-1v-3.013   c0-0.552-0.448-1-1-1h-2.639v-2.013c0-0.552-0.448-1-1-1h-20.135c-0.552,0-1,0.448-1,1v2.013h-2.639c-0.552,0-1,0.448-1,1v3.013   c0,0.552,0.448,1,1,1h2.218v17.142h-1.276c0.457-0.695,0.727-1.523,0.727-2.415c0-1.693-0.948-3.176-2.367-3.917   c0.519-0.872,0.795-1.871,0.795-2.918c0-2.231-1.286-4.163-3.153-5.107v-24.863C-152.5-64.795-152.947-65.243-153.5-65.243z    M-123.032-45.178v1.013h-25.412v-1.013H-123.032z M-144.805-47.178v-1.013h18.135v1.013H-144.805z M-163-28.218   c0-1.762,1.434-3.196,3.196-3.196c0.1,0,0.201,0.007,0.298,0.016c0.354,0.035,0.696-0.122,0.903-0.408   c0.208-0.286,0.25-0.661,0.109-0.985c-0.203-0.469-0.306-0.968-0.306-1.481c0-2.054,1.672-3.725,3.727-3.725   s3.727,1.671,3.727,3.725c0,1.035-0.415,1.997-1.168,2.708c-0.284,0.268-0.386,0.677-0.261,1.047   c0.125,0.37,0.454,0.633,0.842,0.674c1.231,0.131,2.16,1.166,2.16,2.405c0,1.332-1.084,2.415-2.417,2.415h-7.612   C-161.566-25.022-163-26.456-163-28.218z M-145.226-25.022v-17.142h18.974v17.142H-145.226z M-111.997-25.022h-6.917   c-1.345,0-2.439-1.094-2.439-2.439c0-1.065,0.686-1.999,1.707-2.325c0.45-0.144,0.738-0.582,0.691-1.052   c-0.009-0.089-0.011-0.182-0.011-0.274c0-1.653,1.342-2.997,2.993-2.997c1.38,0,2.609,0.978,2.921,2.324   c0.105,0.454,0.59,0.774,1.056,0.774c1.652,0,2.997,1.342,2.997,2.993C-109-26.367-110.344-25.022-111.997-25.022z"/></g><g><path d="M32-56.563c1.804,0,3.271-1.469,3.271-3.275c0-1.803-1.467-3.271-3.271-3.271s-3.271,1.467-3.271,3.271   C28.729-58.032,30.196-56.563,32-56.563z M32-61.108c0.7,0,1.271,0.57,1.271,1.271c0,0.703-0.57,1.275-1.271,1.275   s-1.271-0.572-1.271-1.275C30.729-60.538,31.3-61.108,32-61.108z"/><path d="M22.002-42.803c-0.553,0-1,0.448-1,1v8.586c0,0.552,0.447,1,1,1s1-0.448,1-1v-8.586   C23.002-42.355,22.555-42.803,22.002-42.803z"/><path d="M55.968-38.587c-0.368,0-0.728,0.052-1.08,0.129v-19.428H60c0.455,0,0.854-0.308,0.968-0.749s-0.083-0.903-0.481-1.125   l-28-15.601c-0.303-0.169-0.67-0.169-0.973,0l-28,15.601c-0.398,0.222-0.596,0.684-0.481,1.125S3.545-57.885,4-57.885h5.112v13.747   c-2.722,0.476-4.798,2.848-4.798,5.701c0,0.453,0.051,0.897,0.151,1.328C3.527-36.168,3-34.906,3-33.554   c0,2.779,2.26,5.041,5.037,5.041h47.931c2.774,0,5.032-2.259,5.032-5.037S58.742-38.587,55.968-38.587z M7.85-59.885L32-73.342   l24.15,13.457h-2.263c-0.553,0-1,0.448-1,1v21.374c-0.089,0.069-0.187,0.125-0.271,0.201c-0.321-0.287-0.676-0.53-1.057-0.726   v-7.469c0-0.552-0.447-1-1-1H13.44c-0.553,0-1,0.448-1,1v1.763c-0.419-0.185-0.865-0.314-1.328-0.395v-14.748c0-0.552-0.447-1-1-1   H7.85z M8.037-30.514C6.362-30.514,5-31.877,5-33.554c0-0.96,0.441-1.846,1.212-2.43c0.351-0.267,0.486-0.731,0.333-1.145   c-0.153-0.413-0.23-0.853-0.23-1.309c0-2.092,1.704-3.793,3.798-3.793c1.012,0,1.933,0.398,2.613,1.047   c0.014,0.013,0.026,0.026,0.04,0.039c0.703,0.689,1.14,1.648,1.14,2.708c0,0.234-0.02,0.461-0.058,0.674   c-0.052,0.288,0.025,0.583,0.21,0.81c0.186,0.226,0.46,0.36,0.752,0.366c1.665,0.038,2.97,1.371,2.97,3.037   c0,1.674-1.362,3.037-3.037,3.037H8.037z M18.759-30.514c0.64-0.845,1.021-1.897,1.021-3.037c0-2.401-1.634-4.386-3.874-4.905   c-0.005-1.468-0.558-2.809-1.465-3.829v-2.221H49.56v5.923c-0.1-0.006-0.201-0.009-0.302-0.009c-2.777,0-5.037,2.259-5.037,5.037   c0,1.141,0.381,2.195,1.022,3.041H18.759z M55.968-30.514h-6.71c-1.675,0-3.037-1.364-3.037-3.041c0-1.674,1.362-3.037,3.037-3.037   c1.017,0,1.961,0.503,2.525,1.347c0.186,0.276,0.496,0.443,0.829,0.443c0.001,0,0.001,0,0.002,0c0.332,0,0.644-0.165,0.829-0.441   c0.568-0.842,1.512-1.345,2.524-1.345c1.672,0,3.032,1.362,3.032,3.037S57.64-30.514,55.968-30.514z"/><path d="M32-42.803c-0.553,0-1,0.448-1,1v8.586c0,0.552,0.447,1,1,1s1-0.448,1-1v-8.586C33-42.355,32.553-42.803,32-42.803z"/><path d="M42.002-42.803c-0.553,0-1,0.448-1,1v8.586c0,0.552,0.447,1,1,1s1-0.448,1-1v-8.586   C43.002-42.355,42.555-42.803,42.002-42.803z"/><path d="M13.44-48.566H50.56c0.553,0,1-0.448,1-1v-4.2c0-0.552-0.447-1-1-1H13.44c-0.553,0-1,0.448-1,1v4.2   C12.44-49.014,12.888-48.566,13.44-48.566z M14.44-52.766H49.56v2.2H14.44V-52.766z"/></g><g><path d="M-219.098,23.91c1.488,0,2.698-1.209,2.698-2.695c0-1.488-1.21-2.698-2.698-2.698s-2.698,1.21-2.698,2.698   C-221.796,22.701-220.585,23.91-219.098,23.91z M-219.098,20.45c0.422,0,0.765,0.343,0.765,0.765c0,0.42-0.343,0.763-0.765,0.763   s-0.765-0.343-0.765-0.763C-219.863,20.793-219.52,20.45-219.098,20.45z"/><path d="M-192.068,43.426c0.011-0.107,0.016-0.217,0.016-0.326c0-0.679-0.205-1.308-0.548-1.84c0.75-0.991,1.174-2.227,1.174-3.513   c0-1.609-0.667-3.145-1.784-4.202c0.315-0.614,0.483-1.304,0.483-2.013c0-1.371-0.622-2.629-1.64-3.414   c0.155-0.507,0.237-1.068,0.237-1.648c0-2.199-1.124-3.858-2.612-3.858c-1.492,0-2.617,1.659-2.617,3.858   c0,0.577,0.083,1.139,0.238,1.647c-1.016,0.785-1.637,2.043-1.637,3.415c0,0.711,0.167,1.4,0.482,2.013   c-1.117,1.057-1.783,2.592-1.783,4.202c0,0.399,0.049,0.789,0.125,1.174c-0.442,0.241-0.847,0.551-1.17,0.943   c-0.15-0.042-0.308-0.05-0.464-0.063V29.604c0.4-0.117,0.699-0.474,0.699-0.912V27.07h1.391c0.534,0,0.967-0.433,0.967-0.967   v-4.785c0-0.435-0.29-0.815-0.708-0.932l-17.616-4.897c-0.169-0.047-0.348-0.047-0.518,0l-17.624,4.897   c-0.419,0.116-0.708,0.497-0.708,0.932v4.785c0,0.534,0.433,0.967,0.967,0.967h1.39v1.621c0,0.438,0.298,0.795,0.7,0.912V41.06   c-0.537-0.714-1.343-1.204-2.271-1.328c0.647-1.093,1.013-2.366,1.013-3.695c0-2.102-0.866-4.034-2.358-5.346   c0.448-0.793,0.688-1.703,0.688-2.646c0-1.745-0.822-3.339-2.156-4.286c0.231-0.674,0.354-1.438,0.354-2.223   c0-2.67-1.326-4.683-3.083-4.683c-1.759,0-3.084,2.013-3.084,4.683c0,0.788,0.122,1.55,0.352,2.224   c-1.332,0.947-2.152,2.54-2.152,4.285c0,0.942,0.239,1.853,0.687,2.645C-248.132,32-249,33.934-249,36.036   c0,2.434,1.222,4.679,3.155,5.931c-0.006,0.061-0.024,0.116-0.027,0.178c-1.673,0.105-3.001,1.498-3.001,3.195   c0,1.768,1.438,3.206,3.207,3.206h9.007h0.902h31.968h2.256h7.653c1.589,0,2.881-1.292,2.881-2.881   C-191,44.777-191.402,43.962-192.068,43.426z M-200.069,38.419c-0.038-0.22-0.056-0.444-0.056-0.672   c0-1.303,0.64-2.522,1.669-3.182c0.236-0.151,0.395-0.398,0.435-0.676c0.04-0.278-0.043-0.561-0.227-0.772   c-0.372-0.428-0.576-0.99-0.576-1.585c0-0.945,0.513-1.784,1.307-2.137c0.25-0.11,0.441-0.321,0.526-0.581s0.057-0.543-0.078-0.78   c-0.227-0.399-0.357-0.969-0.357-1.564c0-1.257,0.525-1.901,0.681-1.925c0.159,0.028,0.682,0.684,0.682,1.925   c0,0.601-0.129,1.169-0.354,1.56c-0.137,0.238-0.167,0.522-0.082,0.783s0.277,0.473,0.527,0.583   c0.796,0.354,1.311,1.192,1.311,2.137c0,0.591-0.206,1.155-0.579,1.588c-0.183,0.213-0.264,0.493-0.224,0.771   c0.04,0.276,0.199,0.522,0.434,0.674c1.03,0.662,1.67,1.882,1.67,3.183c0,0.817-0.25,1.604-0.698,2.244   c-0.013-0.006-0.028-0.008-0.042-0.014c-0.152-0.067-0.314-0.113-0.476-0.157c-0.063-0.018-0.122-0.045-0.186-0.058   c-0.229-0.049-0.466-0.076-0.709-0.076c-0.497,0-0.976,0.104-1.414,0.304c-0.183-0.242-0.393-0.462-0.625-0.654   c-0.003-0.002-0.006-0.004-0.009-0.007c-0.695-0.574-1.582-0.91-2.526-0.91c-0.005,0-0.009,0.001-0.014,0.001   S-200.065,38.419-200.069,38.419z M-206.657,43.93c-0.016,0.033-0.042,0.061-0.057,0.094h-26.68v-0.656h2.732h5.711h2.996h5.715   h2.996h5.714h1.214c-0.023,0.03-0.036,0.066-0.058,0.097C-206.482,43.611-206.576,43.767-206.657,43.93z M-232.694,29.657h1.066   v11.777h-1.066V29.657z M-225.917,29.657v11.777h-3.777V29.657H-225.917z M-217.207,29.657v11.777h-3.782V29.657H-217.207z    M-208.497,29.657v11.777h-3.781V29.657H-208.497z M-214.211,41.435h-1.062V29.657h1.062V41.435z M-222.922,41.435h-1.063V29.657   h1.063V41.435z M-205.807,40.774c-0.043,0.055-0.089,0.107-0.127,0.166c-0.092,0.141-0.169,0.291-0.233,0.448   c-0.006,0.017-0.018,0.029-0.023,0.046h-0.373V29.657h1.063v10.768c-0.021,0.019-0.034,0.043-0.053,0.062   C-205.647,40.574-205.729,40.673-205.807,40.774z M-235.751,22.053l16.657-4.629l16.649,4.629v3.085h-1.391h-30.525h-1.391V22.053z    M-204.802,27.07v0.654h-2.729h-5.714h-2.996h-5.715h-2.996h-5.711h-2.732V27.07H-204.802z M-247.067,36.036   c0-1.767,0.872-3.423,2.275-4.324c0.236-0.151,0.395-0.398,0.435-0.677c0.04-0.277-0.043-0.559-0.227-0.771   c-0.521-0.599-0.808-1.387-0.808-2.22c0-1.323,0.724-2.5,1.844-2.998c0.25-0.11,0.44-0.321,0.526-0.581s0.057-0.543-0.078-0.78   c-0.313-0.55-0.492-1.333-0.492-2.149c0-1.706,0.745-2.749,1.151-2.749c0.405,0,1.15,1.043,1.15,2.749   c0,0.813-0.181,1.596-0.496,2.149c-0.135,0.238-0.163,0.521-0.078,0.781c0.085,0.259,0.277,0.47,0.527,0.581   c1.123,0.497,1.847,1.673,1.847,2.997c0,0.832-0.287,1.62-0.808,2.22c-0.184,0.212-0.267,0.493-0.227,0.771   c0.04,0.278,0.198,0.524,0.434,0.676c1.401,0.902,2.271,2.56,2.271,4.325c0,1.332-0.483,2.591-1.324,3.52   c-0.026-0.025-0.059-0.044-0.086-0.07c-0.138-0.128-0.283-0.246-0.437-0.354c-0.039-0.027-0.077-0.056-0.116-0.081   c-0.17-0.109-0.351-0.202-0.537-0.285c-0.053-0.023-0.104-0.047-0.158-0.068c-0.198-0.078-0.403-0.14-0.614-0.186   c-0.045-0.01-0.092-0.017-0.138-0.024c-0.228-0.041-0.458-0.068-0.696-0.068c-0.238,0-0.47,0.027-0.699,0.067   c-0.041,0.008-0.082,0.015-0.123,0.022c-0.229,0.049-0.452,0.113-0.666,0.2c-0.001,0-0.001,0.001-0.002,0.001   c-0.704,0.284-1.313,0.761-1.749,1.385C-246.342,39.16-247.067,37.655-247.067,36.036z M-236.66,46.612h-9.007   c-0.702,0-1.273-0.57-1.273-1.272c0-0.7,0.571-1.269,1.273-1.269c0.182,0,0.355,0.035,0.513,0.104   c0.35,0.153,0.759,0.087,1.042-0.172c0.283-0.259,0.386-0.66,0.263-1.022c-0.063-0.188-0.096-0.395-0.096-0.612   c0-0.235,0.048-0.457,0.122-0.667c0.061-0.172,0.139-0.334,0.239-0.479c0.026-0.038,0.059-0.07,0.088-0.106   c0.089-0.111,0.189-0.212,0.299-0.302c0.039-0.031,0.075-0.067,0.117-0.097c0.141-0.098,0.296-0.176,0.46-0.235   c0.043-0.017,0.088-0.028,0.132-0.042c0.181-0.052,0.368-0.09,0.564-0.09c0.205,0,0.402,0.036,0.591,0.093   c0.054,0.017,0.102,0.046,0.155,0.067c0.13,0.052,0.257,0.109,0.373,0.187c0.055,0.036,0.102,0.081,0.153,0.122   c0.1,0.081,0.194,0.169,0.277,0.269c0.046,0.055,0.086,0.114,0.126,0.175c0.093,0.139,0.181,0.281,0.238,0.443   c0.11,0.315,0.376,0.552,0.702,0.625c0.323,0.071,0.667-0.028,0.901-0.267c0.282-0.287,0.66-0.445,1.062-0.445   c0.816,0,1.48,0.664,1.48,1.479c0,0.171-0.026,0.334-0.078,0.483c-0.166,0.484,0.074,1.014,0.548,1.208   c0.146,0.06,0.265,0.161,0.362,0.279c0.04,0.049,0.074,0.101,0.104,0.154c0.027,0.051,0.057,0.1,0.074,0.154   c0.001,0.006,0.003,0.01,0.005,0.016c0.025,0.081,0.037,0.166,0.039,0.253c0,0.009,0.001,0.017,0.001,0.024   c0,0.079-0.026,0.149-0.045,0.223c-0.013,0.049-0.014,0.102-0.034,0.147c-0.03,0.068-0.079,0.125-0.124,0.184   c-0.028,0.037-0.046,0.081-0.079,0.112c-0.057,0.057-0.13,0.095-0.2,0.136c-0.034,0.02-0.062,0.049-0.099,0.064   c-0.113,0.048-0.236,0.074-0.365,0.074H-236.66z M-233.045,46.612c0.007-0.02,0.008-0.041,0.014-0.061   c0.054-0.163,0.093-0.332,0.116-0.507c0.004-0.03,0.017-0.058,0.02-0.088h25.958c0.001,0.005,0.003,0.009,0.004,0.014   c0.044,0.219,0.109,0.429,0.195,0.629c0.002,0.004,0.002,0.009,0.004,0.013H-233.045z M-193.881,46.612h-7.653h-2.256   c-0.702,0-1.273-0.57-1.273-1.272c0-0.091,0.016-0.178,0.034-0.264c0.008-0.042,0.02-0.082,0.033-0.121   c0.019-0.059,0.042-0.115,0.069-0.17c0.017-0.034,0.033-0.068,0.053-0.101c0.034-0.057,0.075-0.108,0.118-0.158   c0.022-0.026,0.042-0.055,0.067-0.08c0.068-0.068,0.145-0.131,0.229-0.185c0.003-0.002,0.006-0.005,0.009-0.007   c0.059-0.036,0.095-0.094,0.144-0.141c0.053-0.052,0.118-0.093,0.158-0.154c0.023-0.035,0.026-0.081,0.044-0.119   c0.042-0.089,0.089-0.176,0.103-0.275c0-0.001,0-0.001,0-0.002v-0.001c0.005-0.037-0.01-0.072-0.009-0.11   c0.002-0.104,0.005-0.21-0.026-0.309c-0.019-0.057-0.062-0.103-0.09-0.155c-0.038-0.071-0.064-0.148-0.12-0.208   c-0.014-0.016-0.028-0.044-0.042-0.064c-0.027-0.037-0.056-0.073-0.075-0.115c-0.032-0.072-0.056-0.158-0.056-0.261   c0-0.105,0.034-0.203,0.08-0.292c0.015-0.027,0.034-0.052,0.052-0.076c0.043-0.061,0.098-0.11,0.161-0.152   c0.1-0.066,0.213-0.114,0.342-0.114c0.15,0,0.293,0.051,0.402,0.144c0.229,0.196,0.538,0.273,0.833,0.209   c0.295-0.064,0.543-0.264,0.67-0.536c0.331-0.711,1.052-1.17,1.839-1.17c0.861,0,1.63,0.545,1.912,1.355   c0.11,0.316,0.376,0.553,0.703,0.625c0.07,0.016,0.14,0.023,0.209,0.023c0.005,0,0.009-0.003,0.014-0.003   c0.112-0.002,0.221-0.025,0.325-0.065c0.024-0.009,0.046-0.02,0.069-0.03c0.103-0.049,0.202-0.109,0.284-0.193   c0.396-0.406,1.01-0.527,1.532-0.358c0.004,0.001,0.008,0.002,0.012,0.003c0.163,0.055,0.314,0.142,0.45,0.254   c0.331,0.271,0.547,0.679,0.547,1.138c0,0.164-0.027,0.325-0.081,0.48c-0.168,0.485,0.072,1.017,0.547,1.211   c0.351,0.145,0.587,0.495,0.587,0.874C-192.933,46.188-193.358,46.612-193.881,46.612z"/></g><g><path d="M-26.668,50.469c0-1.623-0.605-3.182-1.684-4.379c0.379-0.88,0.576-1.834,0.576-2.798c0-3.9-3.174-7.073-7.074-7.073   c-1.514,0-2.957,0.496-4.148,1.359l-5.498-9.527c-0.082-0.141-0.199-0.243-0.326-0.323v-5.471c0-0.009-0.006-0.016-0.006-0.025   c-0.002-0.056-0.021-0.11-0.033-0.166c-0.016-0.073-0.025-0.147-0.057-0.213c-0.002-0.006-0.002-0.012-0.004-0.018l-6.639-13.526   V6.282h1.098c0.535,0,0.967-0.433,0.967-0.966c0-0.534-0.432-0.967-0.967-0.967h-1.098V3.967c0-0.534-0.432-0.967-0.967-0.967   s-0.967,0.433-0.967,0.967v0.382h-1.098c-0.535,0-0.967,0.433-0.967,0.967c0,0.534,0.432,0.966,0.967,0.966h1.098v2.027   l-6.639,13.526c-0.004,0.008-0.002,0.018-0.008,0.027c-0.02,0.044-0.023,0.094-0.035,0.141c-0.023,0.08-0.049,0.159-0.049,0.24   c0,0.005-0.002,0.009-0.002,0.014v5.47c-0.131,0.081-0.246,0.183-0.328,0.324l-5.744,9.948c-0.23-0.462-0.506-0.9-0.863-1.28   c0.473-0.735,0.732-1.599,0.732-2.479c0-1.314-0.557-2.539-1.502-3.395c0.293-0.522,0.453-1.114,0.453-1.722   c0-1.943-1.582-3.524-3.525-3.524s-3.525,1.581-3.525,3.524c0,0.61,0.158,1.202,0.451,1.723c-0.945,0.855-1.502,2.08-1.502,3.394   c0,0.896,0.254,1.75,0.729,2.481c-0.908,0.97-1.43,2.26-1.43,3.608c0,0.382,0.041,0.759,0.121,1.128   c-0.76,1.064-1.172,2.347-1.172,3.667c0,2.5,1.496,4.667,3.635,5.691l-0.84,1.455c-0.086,0.146-0.131,0.313-0.131,0.483v6.309   h-1.697c-0.535,0-0.967,0.433-0.967,0.967c0,0.534,0.432,0.966,0.967,0.966L-32.885,61c3.428,0,6.217-2.789,6.217-6.217   c0-0.748-0.133-1.465-0.375-2.13C-26.795,51.955-26.668,51.223-26.668,50.469z M-29.709,43.292c0,0.883-0.229,1.755-0.658,2.521   c-0.223,0.397-0.139,0.896,0.203,1.197c0.943,0.835,1.506,2.016,1.559,3.264c-1.115-1.061-2.623-1.712-4.279-1.712   c-2.52,0-4.721,1.497-5.693,3.714l-6.244-10.996v-0.54c0.492-0.508,1.152-0.808,1.871-0.808c0.793,0,1.537,0.352,2.039,0.966   c0.201,0.246,0.516,0.381,0.83,0.351c0.316-0.027,0.602-0.209,0.758-0.487c0.914-1.61,2.629-2.61,4.475-2.61   C-32.016,38.152-29.709,40.458-29.709,43.292z M-52.527,10.727l5.186,10.563h-10.369L-52.527,10.727z M-58.295,23.223h11.539   v14.652l-4.932-8.682c-0.172-0.302-0.492-0.489-0.84-0.489s-0.668,0.187-0.84,0.489l-4.928,8.675V23.223z M-40.605,38.661   c-0.701-0.422-1.504-0.662-2.346-0.662c-0.658,0-1.293,0.144-1.871,0.405v-7.051L-40.605,38.661z M-60.227,31.351v9.921   l-7.5,13.205c-0.084,0.145-0.127,0.31-0.127,0.477v4.113l-2.184-0.001v-7.687c3.021-0.471,5.359-3.117,5.359-6.253   c0-1.315-0.412-2.598-1.172-3.666c0.039-0.172,0.064-0.346,0.084-0.521L-60.227,31.351z M-75.398,45.125   c0-1.038,0.367-2.042,1.033-2.829c0.217-0.256,0.287-0.606,0.182-0.926c-0.109-0.333-0.164-0.683-0.164-1.04   c0-1.072,0.521-2.086,1.395-2.714c0.232-0.167,0.379-0.428,0.398-0.714c0.021-0.286-0.084-0.565-0.291-0.765   c-0.518-0.501-0.801-1.175-0.801-1.896c0-0.984,0.539-1.88,1.408-2.339c0.279-0.149,0.471-0.426,0.508-0.742   c0.035-0.315-0.084-0.629-0.322-0.839c-0.346-0.304-0.543-0.74-0.543-1.197c0-0.877,0.713-1.591,1.592-1.591   c0.877,0,1.592,0.714,1.592,1.591c0,0.455-0.199,0.892-0.547,1.199c-0.236,0.211-0.357,0.524-0.32,0.839   c0.039,0.315,0.229,0.592,0.508,0.74c0.869,0.459,1.41,1.355,1.41,2.339c0,0.719-0.287,1.392-0.807,1.896   c-0.207,0.199-0.313,0.48-0.291,0.766s0.168,0.547,0.4,0.714c0.875,0.627,1.396,1.641,1.396,2.713c0,0.356-0.055,0.707-0.164,1.042   c-0.104,0.318-0.035,0.666,0.18,0.921c0.668,0.792,1.035,1.798,1.035,2.832c0,2.376-1.932,4.348-4.287,4.394h-0.193   C-73.467,49.472-75.398,47.501-75.398,45.125z M-72.734,53.014l0.764-1.321v7.371l-0.764,0V53.014z M-65.92,55.209l13.393-23.582   l11.504,20.257c-2.336,0.203-4.182,2.148-4.182,4.536c0,0.988,0.322,1.897,0.855,2.647h-3.395v-9.16   c0-2.637-2.146-4.784-4.783-4.784c-2.635,0-4.779,2.146-4.779,4.784v9.16h-8.613V55.209z M-49.678,59.067h-5.695v-9.16   c0-1.572,1.277-2.85,2.846-2.85c1.572,0,2.85,1.278,2.85,2.85V59.067z M-32.885,59.067h-7.744c-1.457,0-2.643-1.188-2.643-2.647   c0-1.457,1.186-2.642,2.643-2.642c0.713,0,1.379,0.279,1.875,0.786c0.256,0.258,0.633,0.353,0.979,0.245s0.604-0.401,0.664-0.758   c0.357-2.061,2.133-3.556,4.227-3.556c2.361,0,4.283,1.924,4.283,4.288C-28.602,57.145-30.523,59.067-32.885,59.067z"/><path d="M-52.527,43.008c1.576,0,2.857-1.282,2.857-2.857c0-1.573-1.281-2.853-2.857-2.853c-1.572,0-2.854,1.279-2.854,2.853   C-55.381,41.726-54.1,43.008-52.527,43.008z M-52.527,39.231c0.51,0,0.924,0.413,0.924,0.919c0,0.509-0.414,0.923-0.924,0.923   c-0.506,0-0.92-0.414-0.92-0.923C-53.447,39.644-53.033,39.231-52.527,39.231z"/></g><text x="0" y="79" fill="#000000" font-size="5px" font-weight="bold" font-family="'Helvetica Neue', Helvetica, Arial-Unicode, Arial, Sans-serif">Created by inDhika</text><text x="0" y="84" fill="#000000" font-size="5px" font-weight="bold" font-family="'Helvetica Neue', Helvetica, Arial-Unicode, Arial, Sans-serif">from the Noun Project</text></svg>