<svg xmlns="http://www.w3.org/2000/svg" viewBox="0 0 58 51.03"><defs><style>.cls-1{fill:#65f1e4;}</style></defs><title>Fichier 4icon</title><g id="Calque_2" data-name="Calque 2"><g id="Calque_1-2" data-name="Calque 1"><path class="cls-1" d="M26.14,27.18a1,1,0,0,0,0,2h6.5a1,1,0,0,0,0-2Z"/><path class="cls-1" d="M32.64,30.84h-6.5a1,1,0,0,0,0,2h6.5a1,1,0,0,0,0-2Z"/><path class="cls-1" d="M32.64,34.51h-6.5a1,1,0,0,0,0,2h6.5a1,1,0,0,0,0-2Z"/><path class="cls-1" d="M55.28,40.6a6.2,6.2,0,0,0,.3-7.86,6.16,6.16,0,0,0,1.49-4A6.36,6.36,0,0,0,54.83,24a5.12,5.12,0,0,0,1.05-3.12A5.53,5.53,0,0,0,52.76,16a12,12,0,0,0,.4-3.14c0-3.82-1.58-6.69-3.67-6.69S45.83,9,45.83,12.84A12,12,0,0,0,46.22,16a5.54,5.54,0,0,0-3.13,4.88,4.93,4.93,0,0,0,.07.66H39.65v-8a1,1,0,0,0-.54-.89l-8.72-4.5V4.37h3a1,1,0,0,0,1-1V1a1,1,0,0,0-1-1h-4a1,1,0,0,0-1,1V8.08l-8.72,4.5a1,1,0,0,0-.54.89v8H11.59a1,1,0,0,0-.88.53L8,27.06a1,1,0,0,0-.12.49V37.81l-.21,0a4.55,4.55,0,0,0-4.55,4.54,4.36,4.36,0,0,0,0,.51,4.15,4.15,0,0,0,1,8.19L52.4,51A5.58,5.58,0,0,0,55.28,40.6ZM4.15,49a2.15,2.15,0,1,1,0-4.3h.21a1,1,0,0,0,.89-.41,1,1,0,0,0,.11-1,2.59,2.59,0,0,1-.21-1,2.55,2.55,0,0,1,5.09,0,2.5,2.5,0,0,1-.79,1.85A1,1,0,0,0,10,45.91a1.55,1.55,0,0,1,1.4,1.55A1.57,1.57,0,0,1,9.86,49Zm15,0H13.05a3.6,3.6,0,0,0,.38-1.57,3.55,3.55,0,0,0-1.7-3,4.49,4.49,0,0,0-1.82-6V28.55h9.22V49Zm0-22.48H10.58l1.61-3h6.94ZM32.39,2.37h-2V2h2ZM31.06,49H27.71v-7.6h3.35Zm6.59,0H33.06v-8.6a1,1,0,0,0-1-1H26.71a1,1,0,0,0-1,1V49H21.13V14.08l8.26-4.26,8.26,4.26V49ZM45.1,20.86a3.74,3.74,0,0,1,2.69-3.39,1,1,0,0,0,.58-.53,1,1,0,0,0,0-.78,9.26,9.26,0,0,1-.56-3.32c0-2.91,1.07-4.69,1.66-4.69s1.67,1.78,1.67,4.69a9.23,9.23,0,0,1-.56,3.32,1,1,0,0,0,0,.78,1,1,0,0,0,.58.54,3.7,3.7,0,0,1,2.69,3.38,3.34,3.34,0,0,1-1.19,2.51,1,1,0,0,0-.34.84,1,1,0,0,0,.47.76,4.47,4.47,0,0,1,2.25,3.77A4.27,4.27,0,0,1,53.56,32a1,1,0,0,0-.33.72,1,1,0,0,0,.29.73,4.27,4.27,0,0,1-.32,6.45,7,7,0,0,0-.8-.06,5.55,5.55,0,0,0-1.53.22V27.55a1,1,0,0,0-.13-.49l-2.67-5a1,1,0,0,0-.88-.53h-2A2.84,2.84,0,0,1,45.1,20.86Zm-5.45,2.66h6.94l1.61,3H39.65Zm0,5h9.22v12.5a5.73,5.73,0,0,0-1.54,2,4.21,4.21,0,0,0-1.7-.36A4.15,4.15,0,0,0,42.12,49H39.65ZM52.4,49H45.63a2.16,2.16,0,1,1,0-4.31,2.11,2.11,0,0,1,1.53.64,1,1,0,0,0,1,.25,1,1,0,0,0,.68-.78A3.6,3.6,0,1,1,52.4,49Z"/><path class="cls-1" d="M26,20.84a3.4,3.4,0,1,0,3.4-3.39A3.4,3.4,0,0,0,26,20.84Zm4.79,0a1.4,1.4,0,1,1-1.39-1.39A1.4,1.4,0,0,1,30.78,20.84Z"/><rect class="cls-1" x="11.85" y="37.99" width="1.78" height="1.6"/><rect class="cls-1" x="11.85" y="33.95" width="1.78" height="1.6"/><rect class="cls-1" x="11.85" y="29.95" width="1.78" height="1.6"/><rect class="cls-1" x="15.4" y="37.99" width="1.78" height="1.6"/><rect class="cls-1" x="15.4" y="33.95" width="1.78" height="1.6"/><rect class="cls-1" x="15.4" y="29.95" width="1.78" height="1.6"/><rect class="cls-1" x="45.15" y="37.99" width="1.79" height="1.6"/><rect class="cls-1" x="45.15" y="33.95" width="1.79" height="1.6"/><rect class="cls-1" x="45.15" y="29.95" width="1.79" height="1.6"/><rect class="cls-1" x="41.59" y="37.99" width="1.78" height="1.6"/><rect class="cls-1" x="41.59" y="33.95" width="1.78" height="1.6"/><rect class="cls-1" x="41.59" y="29.95" width="1.78" height="1.6"/></g></g></svg>